Ballontekst.sfdir
StartChar: exclam
Encoding: 33 33 0
Width: 800
GlyphClass: 2
Flags: W
HStem: 24 228<45.4305 166.891>
VStem: 0.330651 210<69.7031 208.657>
LayerCount: 2
Fore
SplineSet
959.330078125 1882 m 1024,0,-1
210.330078125 112 m 0,1,2
 210.330078125 77 210.330078125 77 182.330078125 50.5 c 128,-1,3
 154.330078125 24 154.330078125 24 118.330078125 24 c 0,4,5
 78.330078125 24 78.330078125 24 39.330078125 76 c 0,6,7
 0.330078125 124 0.330078125 124 0.330078125 165 c 0,8,9
 0.330078125 201 0.330078125 201 28.330078125 226.5 c 128,-1,10
 56.330078125 252 56.330078125 252 93.330078125 252 c 0,11,12
 132.330078125 252 132.330078125 252 172.330078125 201 c 0,13,14
 210.330078125 152 210.330078125 152 210.330078125 112 c 0,1,2
110.330078125 448 m 1,15,-1
 530.330078125 1418 l 1,16,17
 600.330078125 1622 600.330078125 1622 642.830078125 1662 c 128,-1,18
 685.330078125 1702 685.330078125 1702 740.330078125 1700 c 128,-1,19
 795.330078125 1698 795.330078125 1698 800.330078125 1653 c 128,-1,20
 805.330078125 1608 805.330078125 1608 772.830078125 1488 c 128,-1,21
 740.330078125 1368 740.330078125 1368 645.330078125 1188 c 1,22,-1
 255.330078125 403 l 1,23,24
 225.330078125 368 225.330078125 368 187.830078125 355.5 c 128,-1,25
 150.330078125 343 150.330078125 343 122.830078125 368 c 128,-1,26
 95.330078125 393 95.330078125 393 102.830078125 423 c 128,-1,27
 110.330078125 453 110.330078125 453 110.330078125 448 c 1,15,-1
EndSplineSet
EndChar
StartChar: quotesingle
Encoding: 39 39 1
Width: -12
GlyphClass: 2
Flags: W
HStem: 1140 520<21 159.185>
VStem: 0 178<1184.73 1634.73>
LayerCount: 2
Fore
SplineSet
178 1446 m 0,0,1
 178 1416 178 1416 183 1357 c 128,-1,2
 188 1298 188 1298 188 1268 c 0,3,4
 188 1140 188 1140 98 1140 c 0,5,6
 36 1140 36 1140 19 1184 c 0,7,8
 11 1207 11 1207 11 1279 c 0,9,10
 11 1307 11 1307 5.5 1362.5 c 128,-1,11
 0 1418 0 1418 0 1446 c 0,12,13
 0 1546 0 1546 8 1581 c 0,14,15
 28 1660 28 1660 96 1660 c 0,16,17
 134 1660 134 1660 160 1635.5 c 128,-1,18
 186 1611 186 1611 186 1573 c 0,19,20
 186 1552 186 1552 182 1509.5 c 128,-1,21
 178 1467 178 1467 178 1446 c 0,0,1
EndSplineSet
Validated: 1
EndChar
StartChar: comma
Encoding: 44 44 2
Width: 101
GlyphClass: 2
Flags: W
HStem: -344 486<87 214>
VStem: 145 156<4.59619 130>
LayerCount: 2
Fore
SplineSet
87 -344 m 0,0,1
 52 -344 52 -344 26 -317 c 128,-1,2
 0 -290 0 -290 0 -255 c 0,3,4
 0 -226 0 -226 62 -83 c 0,5,6
 116 41 116 41 145 94 c 0,7,8
 171 142 171 142 214 142 c 0,9,10
 250 142 250 142 275.5 114.5 c 128,-1,11
 301 87 301 87 301 52 c 0,12,13
 301 28 301 28 159 -290 c 0,14,15
 136 -344 136 -344 87 -344 c 0,0,1
EndSplineSet
Validated: 1
EndChar
StartChar: hyphen
Encoding: 45 45 3
Width: 447
GlyphClass: 2
Flags: W
HStem: 461 170<11.8125 632.312>
VStem: 0 647<483.25 610.262>
LayerCount: 2
Fore
SplineSet
568 475 m 0,0,1
 432 461 432 461 84 461 c 0,2,3
 0 461 0 461 0 539 c 256,4,5
 0 617 0 617 84 617 c 0,6,7
 163 617 163 617 321 624 c 128,-1,8
 479 631 479 631 558 631 c 0,9,10
 647 631 647 631 647 553 c 0,11,12
 647 484 647 484 568 475 c 0,0,1
EndSplineSet
Validated: 1
EndChar
StartChar: period
Encoding: 46 46 4
Width: 92
GlyphClass: 2
Flags: W
HStem: -93 248<-112.869 60.3578>
VStem: -149.998 248<-55.8711 117.356>
LayerCount: 2
Fore
SplineSet
-77.54296875 -32 m 0,0,1
 -129.54296875 -32 -129.54296875 -32 -154.159179688 4 c 128,-1,2
 -178.774414062 40 -178.774414062 40 -162.331054688 92 c 0,3,4
 -146.203125 143 -146.203125 143 -98.6611328125 179.5 c 128,-1,5
 -51.119140625 216 -51.119140625 216 0.880859375 216 c 0,6,7
 51.880859375 216 51.880859375 216 76.8388671875 179.5 c 128,-1,8
 101.796875 143 101.796875 143 85.6689453125 92 c 0,9,10
 69.2255859375 40 69.2255859375 40 21.3408203125 4 c 128,-1,11
 -26.54296875 -32 -26.54296875 -32 -77.54296875 -32 c 0,0,1
EndSplineSet
EndChar
StartChar: slash
Encoding: 47 47 5
Width: 687
GlyphClass: 2
Flags: W
LayerCount: 2
Fore
SplineSet
93 -90 m 0,0,1
 56 -90 56 -90 28 -65 c 128,-1,2
 0 -40 0 -40 0 -3 c 0,3,4
 0 13 0 13 7 31 c 0,5,6
 85 246 85 246 301 650.5 c 128,-1,7
 517 1055 517 1055 596 1271 c 0,8,9
 727 1629 727 1629 794 1626 c 0,10,11
 831 1625 831 1625 859 1599.5 c 128,-1,12
 887 1574 887 1574 887 1538 c 0,13,14
 887 1515 887 1515 876 1483 c 2,15,-1
 764 1211 l 1,16,17
 697 1026 697 1026 573 784 c 2,18,-1
 355 370 l 1,19,-1
 174 -31 l 2,20,21
 147 -90 147 -90 93 -90 c 0,0,1
EndSplineSet
Validated: 33
EndChar
StartChar: colon
Encoding: 58 58 6
Width: 358
GlyphClass: 2
Flags: W
HStem: 68 365<50.0361 211.882> 1033 305<365.004 525.511>
VStem: 15 241<103.067 317.338> 322 236<1066 1306.03>
LayerCount: 2
Fore
SplineSet
256 189 m 0,0,1
 256 136 256 136 222 102 c 128,-1,2
 188 68 188 68 135 68 c 256,3,4
 82 68 82 68 49 102 c 0,5,6
 15 136 15 136 15 189 c 0,7,8
 15 211 15 211 7.5 254 c 128,-1,9
 0 297 0 297 0 318 c 0,10,11
 0 367 0 367 37 400 c 128,-1,12
 74 433 74 433 124 433 c 0,13,14
 256 433 256 433 256 189 c 0,0,1
558 1147 m 0,15,16
 558 1097 558 1097 526.5 1065 c 128,-1,17
 495 1033 495 1033 446 1033 c 0,18,19
 396 1033 396 1033 364 1065 c 128,-1,20
 332 1097 332 1097 332 1147 c 0,21,22
 332 1160 332 1160 327 1187 c 128,-1,23
 322 1214 322 1214 322 1229 c 0,24,25
 322 1276 322 1276 355 1307 c 128,-1,26
 388 1338 388 1338 437 1338 c 0,27,28
 558 1338 558 1338 558 1147 c 0,15,16
EndSplineSet
Validated: 1
EndChar
StartChar: semicolon
Encoding: 59 59 7
AltUni2: 00037e.ffffffff.0 00037e.ffffffff.0
Width: 130
GlyphClass: 2
Flags: W
HStem: 848 276<155.91 300.09>
VStem: 0 178<-184.82 -26.3713> 116 214<877.91 1094.61>
LayerCount: 2
Fore
SplineSet
330 950 m 0,0,1
 330 906 330 906 301 877 c 128,-1,2
 272 848 272 848 228 848 c 256,3,4
 184 848 184 848 155 877 c 128,-1,5
 126 906 126 906 126 950 c 0,6,7
 126 963 126 963 121 987.5 c 128,-1,8
 116 1012 116 1012 116 1024 c 0,9,10
 116 1067 116 1067 146.5 1095.5 c 128,-1,11
 177 1124 177 1124 220 1124 c 0,12,13
 330 1124 330 1124 330 950 c 0,0,1
90 -194 m 0,14,15
 0 -194 0 -194 0 -100 c 0,16,17
 0 -35 0 -35 86 92 c 0,18,19
 175 224 175 224 233 224 c 0,20,21
 269 224 269 224 297 197 c 128,-1,22
 325 170 325 170 325 134 c 256,23,24
 325 98 325 98 255 16 c 0,25,26
 183 -70 183 -70 178 -109 c 0,27,28
 168 -194 168 -194 90 -194 c 0,14,15
EndSplineSet
Validated: 1
EndChar
StartChar: question
Encoding: 63 63 8
Width: 811
GlyphClass: 2
Flags: W
HStem: -72 269<190.179 340.749> 1273 205<252.434 533.58>
VStem: 148.834 224<-43.9561 155.4> 711.834 197<851.048 1103.72>
LayerCount: 2
Fore
SplineSet
48.408203125 308 m 0,0,1
 7.408203125 308 7.408203125 308 -15.9521484375 339.5 c 128,-1,2
 -39.3125 371 -39.3125 371 -29.611328125 411 c 0,3,4
 -12.8759765625 480 -12.8759765625 480 139.620117188 581 c 2,5,-1
 422.276367188 761 l 1,6,7
 578.198242188 872 578.198242188 872 600.510742188 964 c 0,8,9
 628.645507812 1080 628.645507812 1080 543.4140625 1178 c 0,10,11
 461.455078125 1273 461.455078125 1273 343.455078125 1273 c 0,12,13
 280.455078125 1273 280.455078125 1273 167.811523438 1208.5 c 128,-1,14
 55.16796875 1144 55.16796875 1144 32.16796875 1144 c 0,15,16
 -8.83203125 1144 -8.83203125 1144 -30.3291015625 1177 c 128,-1,17
 -51.8251953125 1210 -51.8251953125 1210 -41.880859375 1251 c 0,18,19
 -22.720703125 1330 -22.720703125 1330 149.197265625 1408 c 0,20,21
 303.174804688 1478 303.174804688 1478 393.174804688 1478 c 4,22,23
 594.174804688 1478 594.174804688 1478 720.096679688 1321 c 132,-1,24
 846.018554688 1164 846.018554688 1164 797.510742188 964 c 0,25,26
 762.100585938 818 762.100585938 818 640.694335938 705 c 0,27,28
 568.202148438 637 568.202148438 637 390.0078125 529 c 0,29,30
 210.086914062 418 210.086914062 418 133.3515625 349 c 0,31,32
 88.408203125 308 88.408203125 308 48.408203125 308 c 0,0,1
-98.755859375 -72 m 0,33,34
 -142.755859375 -72 -142.755859375 -72 -171.100585938 -42.5 c 128,-1,35
 -199.446289062 -13 -199.446289062 -13 -189.259765625 29 c 0,36,37
 -174.22265625 91 -174.22265625 91 -129.095703125 141 c 0,38,39
 -78.513671875 197 -78.513671875 197 -20.513671875 197 c 0,40,41
 75.486328125 197 75.486328125 197 46.8671875 79 c 0,42,43
 33.52734375 24 33.52734375 24 -3.1435546875 -20 c 0,44,45
 -47.755859375 -72 -47.755859375 -72 -98.755859375 -72 c 0,33,34
EndSplineSet
EndChar
StartChar: A
Encoding: 65 65 9
Width: 1184
GlyphClass: 2
Flags: W
HStem: 1302 20G<778 973>
VStem: 0 242<225 375.138>
LayerCount: 2
Fore
SplineSet
827 1751 m 1,0,-1
 1012 1822 l 1,1,2
 1172 1833 1172 1833 1340 1736 c 1,3,4
 1392 1577 1392 1577 1383 1337 c 1,5,6
 1306 1219 1306 1219 1255 1009 c 1,7,8
 1255 1009 1255 1009 1240 981 c 1,9,-1
 1212 938 l 1,10,-1
 1183 810 l 1,11,-1
 1112 696 l 1,12,-1
 1098 667 l 1,13,-1
 1098 610 l 1,14,15
 1055 542 1055 542 1041 468 c 1,16,17
 1041 468 1041 468 1012 453 c 1,18,-1
 984 396 l 1,19,20
 979 362 979 362 955 325 c 1,21,22
 955 325 955 325 941 254 c 1,23,-1
 898 182 l 1,24,-1
 898 125 l 1,25,-1
 870 54 l 1,26,-1
 813 -3 l 1,27,28
 712 -11 712 -11 627 54 c 1,29,30
 645 289 645 289 770 525 c 1,31,32
 770 525 770 525 798 653 c 1,33,34
 333 708 333 708 242 225 c 1,35,36
 242 225 242 225 114 83 c 1,37,38
 47 99 47 99 0 168 c 1,39,40
 0 168 0 168 0 339 c 1,41,42
 45 465 45 465 157 639 c 1,43,44
 157 639 157 639 228 781 c 1,45,-1
 242 824 l 1,46,47
 290 886 290 886 342 995 c 2,48,49
 342 995 342 995 371 1052 c 1,50,51
 437 1114 437 1114 456 1209 c 1,52,53
 456 1209 456 1209 542 1280 c 1,54,55
 591 1416 591 1416 713 1537 c 1,56,57
 713 1537 713 1537 727 1580 c 1,58,-1
 741 1622 l 1,59,-1
 770 1651 l 1,60,-1
 784 1708 l 1,61,-1
 827 1751 l 1,0,-1
883 1003 m 1,62,63
 1063 1248 1063 1248 883 1322 c 1,64,65
 673 1136 673 1136 552 831 c 1,66,67
 841 720 841 720 883 1003 c 1,62,63
EndSplineSet
Validated: 33
EndChar
StartChar: B
Encoding: 66 66 10
Width: 1375
GlyphClass: 2
Flags: W
LayerCount: 2
Fore
SplineSet
661.921875 1678 m 1,0,1
 845.921875 1793 845.921875 1793 1107.921875 1793 c 1,2,3
 1107.921875 1793 1107.921875 1793 1338.921875 1750 c 1,4,-1
 1367.921875 1735 l 1,5,6
 1656.921875 1343 1656.921875 1343 1165.921875 1030 c 1,7,8
 1301.921875 803 1301.921875 803 1223.921875 512 c 1,9,10
 892.921875 -25 892.921875 -25 258.921875 22 c 1,11,12
 92.921875 -9 92.921875 -9 -0.078125 152 c 1,13,14
 31.921875 336 31.921875 336 157.921875 540 c 1,15,16
 157.921875 540 157.921875 540 258.921875 756 c 1,17,-1
 287.921875 800 l 1,18,-1
 301.921875 872 l 1,19,-1
 330.921875 915 l 1,20,-1
 402.921875 1059 l 1,21,22
 424.921875 1128 424.921875 1128 488.921875 1217 c 1,23,24
 488.921875 1217 488.921875 1217 488.921875 1260 c 1,25,-1
 632.921875 1577 l 1,26,-1
 661.921875 1678 l 1,0,1
877.921875 1188 m 1,27,28
 1435.921875 1455 1435.921875 1455 1007.921875 1519 c 1,29,30
 809.921875 1506 809.921875 1506 762.921875 1289 c 1,31,32
 652.921875 1091 652.921875 1091 877.921875 1188 c 1,27,28
978.921875 713 m 1,33,34
 905.921875 830 905.921875 830 733.921875 828 c 1,35,36
 629.921875 816 629.921875 816 503.921875 756 c 1,37,38
 489.921875 678 489.921875 678 445.921875 598 c 1,39,40
 425.921875 525 425.921875 525 373.921875 425 c 1,41,42
 373.921875 425 373.921875 425 359.921875 382 c 1,43,-1
 359.921875 339 l 1,44,-1
 474.921875 339 l 1,45,46
 827.921875 361 827.921875 361 978.921875 713 c 1,33,34
EndSplineSet
Validated: 524321
EndChar
StartChar: C
Encoding: 67 67 11
Width: 1063
GlyphClass: 2
Flags: W
LayerCount: 2
Fore
SplineSet
692.000976562 1764 m 1,0,1
 755.000976562 1779 755.000976562 1779 827.000976562 1824 c 1,2,3
 1198.00097656 1877 1198.00097656 1877 1263.00097656 1508 c 1,4,5
 1179.00097656 1344 1179.00097656 1344 917.000976562 1569 c 1,6,7
 238.000976562 1133 238.000976562 1133 316.000976562 381 c 1,8,9
 573.000976562 427 573.000976562 427 812.000976562 636 c 1,10,11
 870.000976562 643 870.000976562 643 947.000976562 606 c 1,12,13
 952.000976562 558 952.000976562 558 917.000976562 501 c 1,14,15
 917.000976562 501 917.000976562 501 917.000976562 456 c 1,16,17
 825.000976562 398 825.000976562 398 707.000976562 276 c 1,18,19
 707.000976562 276 707.000976562 276 616.000976562 215 c 1,20,-1
 586.000976562 185 l 1,21,22
 561.000976562 179 561.000976562 179 541.000976562 155 c 1,23,24
 541.000976562 155 541.000976562 155 496.000976562 140 c 1,25,-1
 391.000976562 95 l 1,26,27
 355.000976562 60 355.000976562 60 285.000976562 20 c 1,28,29
 285.000976562 20 285.000976562 20 165.000976562 20 c 1,30,31
 126.000976562 54 126.000976562 54 90.0009765625 125 c 1,32,33
 90.0009765625 125 90.0009765625 125 15.0009765625 246 c 1,34,35
 17.0009765625 261 17.0009765625 261 0.0009765625 276 c 1,36,37
 -0.9990234375 1119 -0.9990234375 1119 692.000976562 1764 c 1,0,1
EndSplineSet
Validated: 524321
EndChar
StartChar: D
Encoding: 68 68 12
Width: 1267
GlyphClass: 2
Flags: W
HStem: 1522 294<869.5 1118.63>
LayerCount: 2
Fore
SplineSet
722.5 1757 m 1,0,-1
 869.5 1816 l 1,1,2
 1773.5 1814 1773.5 1814 1310.5 948 c 1,3,4
 1255.5 761 1255.5 761 1119.5 595 c 1,5,6
 1119.5 595 1119.5 595 1104.5 551 c 1,7,-1
 1075.5 536 l 1,8,9
 1024.5 408 1024.5 408 898.5 286 c 1,10,11
 898.5 286 898.5 286 884.5 242 c 1,12,13
 797.5 182 797.5 182 678.5 65 c 1,14,15
 663.5 68 663.5 68 648.5 50 c 1,16,17
 393.5 -18 393.5 -18 60.5 36 c 1,18,19
 60.5 36 60.5 36 1.5 95 c 1,20,21
 -1.5 178 -1.5 178 1.5 301 c 1,22,23
 55.5 382 55.5 382 104.5 521 c 1,24,25
 104.5 521 104.5 521 118.5 551 c 1,26,-1
 148.5 580 l 1,27,-1
 148.5 624 l 1,28,29
 183.5 668 183.5 668 207.5 742 c 1,30,31
 221.5 747 221.5 747 236.5 771 c 2,32,33
 236.5 771 236.5 771 266.5 816 c 1,34,-1
 280.5 889 l 1,35,-1
 324.5 933 l 1,36,-1
 472.5 1257 l 1,37,-1
 501.5 1330 l 1,38,-1
 545.5 1404 l 1,39,40
 620.5 1503 620.5 1503 678.5 1669 c 1,41,42
 678.5 1669 678.5 1669 707.5 1713 c 1,43,-1
 722.5 1757 l 1,0,-1
1090.5 1066 m 1,44,45
 1401.5 1544 1401.5 1544 869.5 1522 c 1,46,47
 826.5 1478 826.5 1478 810.5 1404 c 1,48,49
 733.5 1310 733.5 1310 692.5 1169 c 1,50,51
 692.5 1169 692.5 1169 663.5 1124 c 1,52,-1
 648.5 1080 l 1,53,-1
 619.5 1036 l 1,54,-1
 575.5 963 l 1,55,-1
 560.5 919 l 1,56,57
 512.5 833 512.5 833 472.5 713 c 1,58,59
 472.5 713 472.5 713 457.5 683 c 1,60,-1
 427.5 654 l 1,61,62
 398.5 572 398.5 572 339.5 462 c 1,63,64
 310.5 390 310.5 390 310.5 301 c 1,65,66
 856.5 340 856.5 340 1090.5 1066 c 1,44,45
EndSplineSet
Validated: 524321
EndChar
StartChar: E
Encoding: 69 69 13
Width: 1143
GlyphClass: 2
Flags: W
HStem: 810 282<579.124 850.371> 1523 282<742.124 1230.26> 1523 267<742.124 1232.12> 1538 252<743.062 1232.12>
LayerCount: 2
Fore
SplineSet
534.129882812 1746 m 1,0,-1
 668.129882812 1805 l 1,1,2
 790.129882812 1816 790.129882812 1816 965.129882812 1790 c 1,3,4
 965.129882812 1790 965.129882812 1790 1010.12988281 1790 c 1,5,-1
 1069.12988281 1790 l 1,6,-1
 1113.12988281 1790 l 1,7,-1
 1232.12988281 1790 l 1,8,-1
 1277.12988281 1775 l 1,9,-1
 1321.12988281 1760 l 1,10,-1
 1351.12988281 1627 l 1,11,-1
 1277.12988281 1538 l 1,12,13
 1148.12988281 1516 1148.12988281 1516 950.129882812 1523 c 1,14,15
 950.129882812 1523 950.129882812 1523 846.129882812 1523 c 1,16,-1
 802.129882812 1523 l 1,17,-1
 742.129882812 1523 l 1,18,-1
 698.129882812 1493 l 1,19,20
 679.129882812 1386 679.129882812 1386 609.129882812 1256 c 1,21,22
 609.129882812 1256 609.129882812 1256 609.129882812 1196 c 1,23,-1
 579.129882812 1181 l 1,24,-1
 579.129882812 1137 l 1,25,-1
 579.129882812 1092 l 1,26,27
 1045.12988281 1143 1045.12988281 1143 1039.12988281 959 c 1,28,29
 1016.12988281 917 1016.12988281 917 965.129882812 870 c 1,30,31
 839.129882812 858 839.129882812 858 638.129882812 810 c 1,32,33
 638.129882812 810 638.129882812 810 594.129882812 810 c 1,34,-1
 534.129882812 810 l 1,35,-1
 505.129882812 795 l 1,36,-1
 445.129882812 795 l 1,37,-1
 401.129882812 766 l 1,38,-1
 312.129882812 543 l 1,39,-1
 312.129882812 498 l 1,40,-1
 282.129882812 394 l 1,41,-1
 282.129882812 350 l 1,42,-1
 312.129882812 335 l 1,43,44
 465.129882812 346 465.129882812 346 624.129882812 439 c 1,45,46
 624.129882812 439 624.129882812 439 742.129882812 469 c 1,47,-1
 802.129882812 469 l 1,48,49
 871.129882812 371 871.129882812 371 787.129882812 261 c 1,50,51
 -264.870117188 -348 -264.870117188 -348 89.1298828125 647 c 1,52,53
 124.129882812 793 124.129882812 793 238.129882812 974 c 1,54,55
 238.129882812 974 238.129882812 974 282.129882812 1077 c 1,56,-1
 297.129882812 1137 l 1,57,-1
 327.129882812 1181 l 1,58,-1
 475.129882812 1508 l 1,59,-1
 505.129882812 1686 l 1,60,-1
 534.129882812 1746 l 1,0,-1
EndSplineSet
Validated: 524321
EndChar
StartChar: F
Encoding: 70 70 14
Width: 1092
GlyphClass: 2
Flags: W
VStem: 0 281<53.9141 272.25>
LayerCount: 2
Fore
SplineSet
680 1737 m 1,0,1
 762 1800 762 1800 886 1826 c 1,2,3
 1027 1836 1027 1836 1256 1796 c 1,4,5
 1256 1796 1256 1796 1315 1796 c 1,6,-1
 1344 1811 l 1,7,-1
 1462 1781 l 1,8,-1
 1492 1707 l 1,9,10
 1362 1457 1362 1457 857 1545 c 1,11,12
 857 1545 857 1545 812 1515 c 1,13,-1
 768 1412 l 1,14,15
 745 1370 745 1370 724 1294 c 1,16,17
 724 1294 724 1294 694 1205 c 1,18,-1
 665 1175 l 1,19,-1
 665 1131 l 1,20,21
 1154 1106 1154 1106 1108 939 c 1,22,23
 869 805 869 805 547 836 c 1,24,25
 547 836 547 836 414 496 c 1,26,-1
 355 363 l 1,27,-1
 340 333 l 1,28,29
 310 261 310 261 281 141 c 1,30,31
 281 141 281 141 281 82 c 1,32,33
 195 14 195 14 59 8 c 1,34,35
 5 84 5 84 0 200 c 1,36,37
 54 281 54 281 118 422 c 1,38,39
 118 422 118 422 133 451 c 1,40,-1
 148 496 l 1,41,-1
 177 540 l 1,42,-1
 177 584 l 1,43,44
 206 625 206 625 236 703 c 1,45,46
 236 703 236 703 236 747 c 1,47,48
 298 836 298 836 325 954 c 1,49,50
 370 1027 370 1027 384 1102 c 1,51,52
 441 1175 441 1175 473 1294 c 1,53,54
 553 1419 553 1419 650 1648 c 1,55,56
 650 1648 650 1648 680 1693 c 1,57,-1
 680 1737 l 1,0,1
EndSplineSet
Validated: 33
EndChar
StartChar: G
Encoding: 71 71 15
Width: 1173
GlyphClass: 2
Flags: W
LayerCount: 2
Fore
SplineSet
0 303 m 1,0,1
 73 1315 73 1315 939 1806 c 1,2,3
 1340 1859 1340 1859 1373 1503 c 1,4,5
 1326 1454 1326 1454 1243 1445 c 1,6,7
 1153 1534 1153 1534 997 1561 c 1,8,9
 372 1193 372 1193 275 390 c 1,10,11
 275 390 275 390 332 332 c 1,12,13
 734 350 734 350 752 795 c 1,14,15
 752 795 752 795 665 867 c 1,16,17
 675 934 675 934 723 1026 c 1,18,19
 1385 1060 1385 1060 1243 766 c 1,20,21
 1170 757 1170 757 1084 766 c 1,22,23
 1084 766 1084 766 1026 722 c 1,24,25
 995 599 995 599 911 433 c 1,26,27
 911 433 911 433 896 390 c 1,28,-1
 882 332 l 1,29,30
 838 253 838 253 824 144 c 1,31,32
 787 101 787 101 752 28 c 1,33,34
 691 17 691 17 607 14 c 1,35,36
 547 65 547 65 448 72 c 1,37,38
 101 -70 101 -70 0 303 c 1,0,1
EndSplineSet
Validated: 33
EndChar
StartChar: H
Encoding: 72 72 16
Width: 1396
GlyphClass: 2
Flags: W
HStem: 762 235<708.745 834.191>
VStem: 1393.5 250<1658 1765>
LayerCount: 2
Fore
SplineSet
777.5 1775 m 1,0,1
 777.5 1775 777.5 1775 850.5 1819 c 1,2,3
 1123.5 1770 1123.5 1770 821.5 1320 c 1,4,5
 821.5 1320 821.5 1320 704.5 1041 c 1,6,-1
 704.5 997 l 1,7,8
 762.5 1005 762.5 1005 836.5 983 c 1,9,10
 897.5 994 897.5 994 982.5 997 c 2,11,12
 982.5 997 982.5 997 1026.5 997 c 1,13,14
 1141.5 1128 1141.5 1128 1217.5 1349 c 1,15,16
 1302.5 1452 1302.5 1452 1349.5 1614 c 1,17,18
 1349.5 1614 1349.5 1614 1379.5 1658 c 1,19,-1
 1393.5 1760 l 1,20,21
 1506.5 1816 1506.5 1816 1643.5 1760 c 1,22,23
 1648.5 1699 1648.5 1699 1643.5 1614 c 1,24,25
 1592.5 1554 1592.5 1554 1555.5 1452 c 1,26,27
 1485.5 1354 1485.5 1354 1438.5 1203 c 1,28,29
 1405.5 1146 1405.5 1146 1349.5 1085 c 1,30,31
 1349.5 1085 1349.5 1085 1320.5 983 c 1,32,-1
 1232.5 821 l 1,33,-1
 1217.5 762 l 1,34,-1
 1188.5 718 l 1,35,-1
 1159.5 660 l 1,36,-1
 1129.5 601 l 1,37,-1
 1100.5 542 l 1,38,-1
 1056.5 469 l 1,39,40
 1022.5 322 1022.5 322 909.5 161 c 1,41,42
 909.5 161 909.5 161 894.5 102 c 1,43,44
 834.5 61 834.5 61 733.5 43 c 1,45,46
 698.5 71 698.5 71 645.5 131 c 1,47,48
 645.5 131 645.5 131 674.5 307 c 1,49,50
 753.5 394 753.5 394 836.5 557 c 1,51,52
 836.5 557 836.5 557 836.5 616 c 1,53,-1
 865.5 630 l 1,54,-1
 865.5 674 l 1,55,56
 880.5 679 880.5 679 894.5 704 c 1,57,58
 894.5 704 894.5 704 894.5 762 c 1,59,60
 729.5 769 729.5 769 527.5 689 c 1,61,62
 466.5 591 466.5 591 410.5 425 c 2,63,64
 410.5 425 410.5 425 395.5 381 c 1,65,-1
 381.5 352 l 2,66,67
 353.5 291 353.5 291 293.5 205 c 1,68,69
 293.5 205 293.5 205 293.5 146 c 1,70,-1
 263.5 102 l 1,71,-1
 249.5 73 l 1,72,-1
 219.5 29 l 1,73,-1
 116.5 14 l 1,74,75
 36.5 51 36.5 51 -0.5 146 c 1,76,77
 -0.5 146 -0.5 146 160.5 513 c 1,78,-1
 190.5 557 l 1,79,80
 212.5 599 212.5 599 234.5 674 c 1,81,82
 234.5 674 234.5 674 263.5 718 c 1,83,-1
 337.5 836 l 1,84,-1
 351.5 894 l 1,85,86
 363.5 916 363.5 916 366.5 953 c 1,87,88
 366.5 953 366.5 953 410.5 997 c 1,89,-1
 439.5 1071 l 1,90,-1
 483.5 1129 l 1,91,-1
 513.5 1173 l 1,92,-1
 527.5 1232 l 1,93,-1
 557.5 1291 l 1,94,95
 605.5 1368 605.5 1368 660.5 1511 c 1,96,97
 723.5 1611 723.5 1611 777.5 1775 c 1,0,1
EndSplineSet
Validated: 524321
EndChar
StartChar: I
Encoding: 73 73 17
Width: 811
GlyphClass: 2
Flags: W
VStem: 12.3753 317<103.93 268.344>
LayerCount: 2
Fore
SplineSet
789.374023438 1797 m 1,0,1
 789.374023438 1797 789.374023438 1797 868.374023438 1845 c 1,2,-1
 916.374023438 1845 l 1,3,4
 969.374023438 1807 969.374023438 1807 1011.37402344 1718 c 1,5,6
 1011.37402344 1718 1011.37402344 1718 916.374023438 1480 c 1,7,-1
 868.374023438 1369 l 1,8,-1
 837.374023438 1353 l 1,9,10
 800.374023438 1231 800.374023438 1231 710.374023438 1052 c 1,11,12
 710.374023438 1052 710.374023438 1052 646.374023438 957 c 1,13,-1
 630.374023438 877 l 1,14,-1
 583.374023438 830 l 1,15,-1
 567.374023438 766 l 1,16,-1
 408.374023438 417 l 1,17,-1
 392.374023438 354 l 1,18,-1
 377.374023438 306 l 1,19,-1
 345.374023438 275 l 1,20,-1
 329.374023438 211 l 2,21,22
 280.374023438 5 280.374023438 5 91.3740234375 21 c 1,23,24
 -33.6259765625 106 -33.6259765625 106 12.3740234375 275 c 1,25,26
 172.374023438 474 172.374023438 474 250.374023438 766 c 1,27,28
 250.374023438 766 250.374023438 766 345.374023438 909 c 1,29,-1
 345.374023438 957 l 1,30,31
 390.374023438 1008 390.374023438 1008 424.374023438 1100 c 1,32,33
 424.374023438 1100 424.374023438 1100 472.374023438 1163 c 1,34,35
 477.374023438 1201 477.374023438 1201 504.374023438 1242 c 1,36,37
 504.374023438 1242 504.374023438 1242 519.374023438 1306 c 1,38,39
 610.374023438 1408 610.374023438 1408 662.374023438 1575 c 1,40,41
 709.374023438 1633 709.374023438 1633 757.374023438 1718 c 1,42,43
 757.374023438 1718 757.374023438 1718 757.374023438 1766 c 1,44,45
 773.374023438 1770 773.374023438 1770 789.374023438 1797 c 1,0,1
EndSplineSet
Validated: 524321
EndChar
StartChar: J
Encoding: 74 74 18
Width: 1134
GlyphClass: 2
Flags: W
VStem: 32.8739 227<335.312 510.662>
LayerCount: 2
Fore
SplineSet
1166.875 1783 m 1,0,-1
 1226.875 1828 l 1,1,-1
 1287.875 1828 l 1,2,-1
 1332.875 1813 l 1,3,-1
 1347.875 1813 l 1,4,-1
 1332.875 1813 l 1,5,-1
 1347.875 1813 l 1,6,7
 1398.875 1732 1398.875 1732 1377.875 1616 c 1,8,9
 1319.875 1552 1319.875 1552 1287.875 1450 c 1,10,11
 1220.875 1379 1220.875 1379 1196.875 1269 c 1,12,13
 1196.875 1269 1196.875 1269 1135.875 1163 c 1,14,-1
 1105.875 1133 l 1,15,-1
 1105.875 1087 l 1,16,17
 1057.875 1022 1057.875 1022 1014.875 906 c 0,18,19
 983.875 812 983.875 812 894.875 679 c 1,20,21
 894.875 679 894.875 679 894.875 634 c 1,22,-1
 863.875 619 l 1,23,-1
 863.875 574 l 1,24,-1
 833.875 528 l 1,25,26
 704.875 224 704.875 224 395.875 30 c 1,27,28
 -114.125 -35 -114.125 -35 32.875 498 c 1,29,30
 120.875 584 120.875 584 259.875 543 c 1,31,32
 234.875 438 234.875 438 304.875 332 c 1,33,34
 442.875 407 442.875 407 546.875 574 c 1,35,36
 546.875 574 546.875 574 576.875 589 c 1,37,38
 619.875 700 619.875 700 727.875 861 c 1,39,40
 727.875 861 727.875 861 727.875 906 c 1,41,-1
 758.875 921 l 1,42,-1
 788.875 1057 l 1,43,-1
 818.875 1087 l 1,44,-1
 848.875 1133 l 1,45,-1
 863.875 1193 l 1,46,-1
 894.875 1254 l 1,47,48
 1004.875 1391 1004.875 1391 1075.875 1601 c 1,49,50
 1075.875 1601 1075.875 1601 1090.875 1632 c 1,51,52
 1105.875 1637 1105.875 1637 1120.875 1662 c 1,53,54
 1120.875 1662 1120.875 1662 1135.875 1707 c 1,55,-1
 1166.875 1783 l 1,0,-1
EndSplineSet
Validated: 524325
EndChar
StartChar: K
Encoding: 75 75 19
Width: 1481
GlyphClass: 2
Flags: W
VStem: 772.308 283<125.703 749> 772.308 268<125.703 749>
LayerCount: 2
Fore
SplineSet
713.307617188 1685 m 1,0,1
 754.307617188 1745 754.307617188 1745 847.307617188 1819 c 1,2,3
 908.307617188 1795 908.307617188 1795 980.307617188 1745 c 1,4,5
 962.307617188 1555 962.307617188 1555 847.307617188 1358 c 1,6,7
 847.307617188 1358 847.307617188 1358 847.307617188 1314 c 1,8,-1
 817.307617188 1299 l 1,9,-1
 817.307617188 1254 l 1,10,-1
 758.307617188 1180 l 1,11,-1
 758.307617188 1121 l 1,12,13
 1275.30761719 1308 1275.30761719 1308 1634.30761719 1760 c 1,14,15
 1706.30761719 1769 1706.30761719 1769 1812.30761719 1760 c 1,16,17
 1839.30761719 1682 1839.30761719 1682 1827.30761719 1581 c 1,18,19
 1751.30761719 1519 1751.30761719 1519 1678.30761719 1418 c 1,20,21
 1678.30761719 1418 1678.30761719 1418 1649.30761719 1403 c 1,22,-1
 1619.30761719 1373 l 1,23,-1
 1574.30761719 1329 l 1,24,-1
 1545.30761719 1314 l 1,25,-1
 1515.30761719 1284 l 1,26,-1
 1471.30761719 1254 l 1,27,-1
 1426.30761719 1210 l 1,28,-1
 1381.30761719 1165 l 1,29,30
 1311.30761719 1146 1311.30761719 1146 1248.30761719 1076 c 1,31,32
 1166.30761719 1054 1166.30761719 1054 1084.30761719 1002 c 1,33,34
 1042.30761719 867 1042.30761719 867 1055.30761719 675 c 1,35,36
 1072.30761719 550 1072.30761719 550 1040.30761719 378 c 1,37,38
 1040.30761719 378 1040.30761719 378 1040.30761719 333 c 1,39,40
 1054.30761719 256 1054.30761719 256 1040.30761719 170 c 1,41,42
 1040.30761719 170 1040.30761719 170 1025.30761719 125 c 1,43,-1
 1025.30761719 81 l 1,44,45
 934.307617188 25 934.307617188 25 817.307617188 21 c 1,46,47
 817.307617188 21 817.307617188 21 743.307617188 66 c 1,48,49
 716.307617188 249 716.307617188 249 772.307617188 452 c 1,50,51
 772.307617188 452 772.307617188 452 772.307617188 749 c 1,52,-1
 743.307617188 794 l 1,53,54
 661.307617188 783 661.307617188 783 579.307617188 735 c 1,55,56
 483.307617188 603 483.307617188 603 416.307617188 393 c 1,57,58
 416.307617188 393 416.307617188 393 401.307617188 363 c 1,59,-1
 371.307617188 319 l 1,60,-1
 342.307617188 274 l 1,61,-1
 342.307617188 229 l 1,62,-1
 312.307617188 200 l 1,63,-1
 282.307617188 66 l 1,64,65
 267.307617188 62 267.307617188 62 253.307617188 36 c 1,66,67
 117.307617188 -27 117.307617188 -27 0.3076171875 96 c 1,68,69
 30.3076171875 284 30.3076171875 284 178.307617188 482 c 1,70,71
 208.307617188 603 208.307617188 603 297.307617188 764 c 1,72,73
 297.307617188 764 297.307617188 764 327.307617188 809 c 1,74,-1
 401.307617188 987 l 1,75,-1
 416.307617188 1017 l 1,76,-1
 431.307617188 1046 l 1,77,-1
 446.307617188 1076 l 1,78,79
 469.307617188 1149 469.307617188 1149 535.307617188 1240 c 1,80,81
 535.307617188 1240 535.307617188 1240 550.307617188 1284 c 1,82,-1
 564.307617188 1329 l 1,83,-1
 594.307617188 1388 l 1,84,85
 643.307617188 1468 643.307617188 1468 683.307617188 1596 c 2,86,87
 683.307617188 1596 683.307617188 1596 713.307617188 1685 c 1,0,1
EndSplineSet
Validated: 524321
EndChar
StartChar: L
Encoding: 76 76 20
Width: 1005
GlyphClass: 2
Flags: W
LayerCount: 2
Fore
SplineSet
654.671875 1765 m 1,0,-1
 711.671875 1822 l 1,1,-1
 810.671875 1808 l 1,2,3
 862.671875 1713 862.671875 1713 853.671875 1552 c 1,4,5
 721.671875 1391 721.671875 1391 625.671875 1110 c 1,6,7
 625.671875 1110 625.671875 1110 583.671875 1011 c 1,8,-1
 511.671875 826 l 1,9,-1
 483.671875 783 l 1,10,-1
 483.671875 740 l 1,11,12
 373.671875 576 373.671875 576 341.671875 356 c 1,13,14
 848.671875 406 848.671875 406 825.671875 199 c 1,15,16
 825.671875 199 825.671875 199 796.671875 128 c 1,17,18
 46.671875 -147 46.671875 -147 -0.328125 327 c 1,19,20
 -0.328125 327 -0.328125 327 113.671875 641 c 1,21,22
 156.671875 693 156.671875 693 184.671875 783 c 1,23,24
 198.671875 788 198.671875 788 213.671875 811 c 1,25,26
 213.671875 811 213.671875 811 227.671875 854 c 1,27,-1
 298.671875 982 l 1,28,-1
 369.671875 1153 l 1,29,-1
 398.671875 1210 l 1,30,-1
 426.671875 1267 l 1,31,-1
 454.671875 1324 l 1,32,33
 492.671875 1383 492.671875 1383 526.671875 1480 c 1,34,35
 526.671875 1480 526.671875 1480 568.671875 1580 c 1,36,37
 591.671875 1621 591.671875 1621 611.671875 1694 c 1,38,39
 611.671875 1694 611.671875 1694 639.671875 1722 c 1,40,-1
 654.671875 1765 l 1,0,-1
EndSplineSet
Validated: 524321
EndChar
StartChar: M
Encoding: 77 77 21
Width: 1651
GlyphClass: 2
Flags: W
LayerCount: 2
Fore
SplineSet
807 1792 m 1,0,-1
 835 1820 l 1,1,2
 906 1817 906 1817 988 1778 c 1,3,4
 985 1686 985 1686 960 1556 c 2,5,6
 960 1556 960 1556 932 1417 c 1,7,8
 910 1348 910 1348 904 1250 c 1,9,10
 904 1250 904 1250 890 1194 c 1,11,12
 899 1131 899 1131 876 1041 c 1,13,14
 876 1041 876 1041 876 944 c 1,15,-1
 876 846 l 1,16,-1
 876 791 l 1,17,-1
 876 749 l 1,18,19
 868 730 868 730 876 693 c 1,20,21
 940 738 940 738 1015 832 c 1,22,23
 1015 832 1015 832 1057 916 c 1,24,25
 1145 992 1145 992 1196 1111 c 1,26,27
 1241 1141 1241 1141 1280 1208 c 1,28,29
 1323 1257 1323 1257 1377 1347 c 1,30,31
 1377 1347 1377 1347 1419 1389 c 1,32,-1
 1447 1444 l 1,33,-1
 1558 1570 l 1,34,-1
 1614 1667 l 1,35,-1
 1641 1723 l 1,36,37
 1708 1750 1708 1750 1808 1750 c 1,38,39
 1861 1655 1861 1655 1850 1542 c 1,40,41
 1850 1542 1850 1542 1711 1013 c 1,42,-1
 1683 930 l 1,43,-1
 1641 818 l 1,44,-1
 1627 777 l 1,45,-1
 1614 735 l 1,46,-1
 1558 540 l 1,47,-1
 1544 498 l 1,48,49
 1498 385 1498 385 1488 234 c 1,50,51
 1488 234 1488 234 1461 165 c 1,52,-1
 1433 95 l 1,53,54
 1339 51 1339 51 1224 67 c 1,55,56
 1186 128 1186 128 1182 206 c 1,57,58
 1224 379 1224 379 1335 651 c 1,59,60
 1335 651 1335 651 1349 693 c 1,61,-1
 1405 888 l 1,62,-1
 1419 916 l 1,63,-1
 1433 999 l 1,64,65
 1322 908 1322 908 1238 749 c 1,66,67
 1126 644 1126 644 1043 457 c 1,68,69
 941 364 941 364 862 206 c 1,70,71
 862 206 862 206 848 165 c 1,72,73
 801 117 801 117 751 39 c 1,74,75
 690 17 690 17 612 25 c 1,76,77
 612 25 612 25 529 123 c 1,78,79
 571 245 571 245 570 415 c 1,80,81
 583 457 583 457 584 526 c 1,82,83
 584 526 584 526 612 651 c 1,84,-1
 626 846 l 1,85,-1
 640 902 l 1,86,-1
 612 944 l 1,87,88
 535 835 535 835 459 651 c 1,89,90
 420 595 420 595 376 498 c 1,91,92
 376 498 376 498 362 457 c 1,93,-1
 334 415 l 1,94,-1
 306 373 l 1,95,96
 280 319 280 319 250 220 c 2,97,98
 250 220 250 220 236 178 c 1,99,100
 21 49 21 49 0 304 c 1,101,102
 57 384 57 384 83 498 c 1,103,104
 185 614 185 614 250 791 c 1,105,106
 250 791 250 791 278 832 c 1,107,-1
 306 874 l 1,108,-1
 403 1041 l 1,109,110
 419 1097 419 1097 473 1180 c 1,111,112
 473 1180 473 1180 542 1347 c 1,113,-1
 570 1375 l 1,114,-1
 584 1417 l 1,115,-1
 612 1444 l 1,116,-1
 626 1486 l 1,117,-1
 654 1542 l 1,118,-1
 682 1584 l 1,119,-1
 709 1625 l 1,120,-1
 723 1737 l 1,121,-1
 807 1792 l 1,0,-1
EndSplineSet
Validated: 33
EndChar
StartChar: N
Encoding: 78 78 22
Width: 1427
GlyphClass: 2
Flags: W
VStem: 665 257<1536.44 1685>
LayerCount: 2
Fore
SplineSet
665 1685 m 1,0,1
 665 1685 665 1685 801 1821 c 1,2,-1
 922 1791 l 1,3,4
 909 1414 909 1414 1133 1156 c 1,5,6
 1133 1156 1133 1156 1269 1428 c 1,7,-1
 1329 1534 l 1,8,-1
 1360 1594 l 1,9,-1
 1360 1640 l 1,10,11
 1414 1685 1414 1685 1465 1761 c 1,12,13
 1526 1778 1526 1778 1616 1761 c 1,14,15
 1639 1676 1639 1676 1616 1564 c 1,16,17
 1515 1426 1515 1426 1465 1217 c 1,18,19
 1384 1111 1384 1111 1329 929 c 1,20,21
 1277 858 1277 858 1254 748 c 1,22,23
 1205 696 1205 696 1193 612 c 1,24,25
 1135 530 1135 530 1073 385 c 1,26,27
 1073 385 1073 385 1057 340 c 1,28,29
 1026 268 1026 268 997 144 c 1,30,31
 997 144 997 144 967 68 c 1,32,-1
 891 23 l 1,33,34
 796 16 796 16 710 98 c 1,35,36
 728 414 728 414 937 748 c 1,37,38
 902 998 902 998 740 1232 c 1,39,40
 740 1232 740 1232 650 1005 c 1,41,-1
 604 899 l 1,42,-1
 589 869 l 1,43,-1
 559 839 l 1,44,-1
 544 793 l 1,45,-1
 529 748 l 1,46,-1
 514 703 l 1,47,-1
 499 657 l 1,48,-1
 408 491 l 1,49,-1
 378 416 l 1,50,-1
 347 355 l 1,51,-1
 272 204 l 1,52,-1
 257 113 l 1,53,54
 180 56 180 56 60 53 c 1,55,56
 60 53 60 53 0 113 c 1,57,-1
 0 265 l 1,58,59
 66 363 66 363 181 597 c 1,60,61
 181 597 181 597 257 763 c 1,62,-1
 287 824 l 1,63,-1
 378 1005 l 1,64,-1
 393 1050 l 1,65,-1
 408 1081 l 1,66,-1
 423 1111 l 1,67,-1
 453 1141 l 1,68,69
 465 1212 465 1212 514 1307 c 2,70,71
 514 1307 514 1307 544 1368 c 1,72,-1
 634 1564 l 1,73,-1
 650 1625 l 1,74,75
 661 1646 661 1646 665 1685 c 1,0,1
EndSplineSet
Validated: 33
EndChar
StartChar: O
Encoding: 79 79 23
Width: 1166
GlyphClass: 2
Flags: W
LayerCount: 2
Fore
SplineSet
913 1807 m 1,0,1
 936 1805 936 1805 959 1822 c 1,2,3
 1008 1822 1008 1822 1080 1807 c 1,4,5
 1080 1807 1080 1807 1126 1807 c 1,6,-1
 1233 1807 l 1,7,-1
 1278 1807 l 1,8,-1
 1309 1792 l 1,9,10
 1407 1532 1407 1532 1339 1213 c 1,11,12
 1339 1213 1339 1213 1278 1107 c 1,13,-1
 1263 1061 l 1,14,15
 1247 984 1247 984 1187 894 c 1,16,17
 1187 894 1187 894 1172 848 c 1,18,-1
 1157 817 l 1,19,-1
 1126 787 l 1,20,-1
 1111 726 l 1,21,-1
 1080 665 l 1,22,-1
 1050 620 l 1,23,-1
 1035 574 l 1,24,25
 923 487 923 487 822 330 c 1,26,27
 807 325 807 325 791 300 c 1,28,29
 791 300 791 300 761 270 c 1,30,-1
 746 239 l 1,31,32
 659 202 659 202 578 117 c 1,33,34
 563 120 563 120 548 102 c 1,35,36
 548 102 548 102 365 26 c 1,37,38
 242 47 242 47 76 148 c 1,39,40
 76 148 76 148 0 361 c 1,41,42
 125 1070 125 1070 700 1670 c 1,43,44
 801 1711 801 1711 913 1807 c 1,0,1
1080 1502 m 1,45,46
 1080 1502 1080 1502 974 1533 c 1,47,48
 505 1150 505 1150 304 498 c 1,49,50
 299 430 299 430 335 346 c 1,51,52
 717 480 717 480 867 909 c 1,53,54
 1045 1154 1045 1154 1080 1502 c 1,45,46
EndSplineSet
Validated: 33
EndChar
StartChar: P
Encoding: 80 80 24
Width: 1164
GlyphClass: 2
Flags: W
LayerCount: 2
Fore
SplineSet
906.749023438 1779 m 1,0,1
 977.749023438 1781 977.749023438 1781 1066.74902344 1808 c 1,2,3
 1574.74902344 1829 1574.74902344 1829 1505.74902344 1355 c 1,4,5
 1222.74902344 800 1222.74902344 800 540.749023438 742 c 1,6,7
 509.749023438 634 509.749023438 634 423.749023438 479 c 1,8,9
 423.749023438 479 423.749023438 479 423.749023438 435 c 1,10,-1
 365.749023438 347 l 1,11,-1
 365.749023438 274 l 1,12,13
 302.749023438 209 302.749023438 209 263.749023438 99 c 1,14,15
 263.749023438 99 263.749023438 99 233.749023438 40 c 1,16,17
 120.749023438 -4 120.749023438 -4 0.7490234375 69 c 1,18,19
 -4.2509765625 124 -4.2509765625 124 14.7490234375 201 c 1,20,21
 14.7490234375 201 14.7490234375 201 146.749023438 464 c 1,22,-1
 175.749023438 493 l 1,23,-1
 175.749023438 537 l 1,24,-1
 204.749023438 566 l 1,25,-1
 233.749023438 654 l 1,26,-1
 248.749023438 698 l 1,27,-1
 263.749023438 727 l 1,28,-1
 292.749023438 771 l 1,29,-1
 307.749023438 829 l 1,30,-1
 350.749023438 888 l 1,31,32
 356.749023438 923 356.749023438 923 380.749023438 961 c 1,33,34
 380.749023438 961 380.749023438 961 394.749023438 1019 c 1,35,-1
 409.749023438 1063 l 1,36,-1
 438.749023438 1107 l 1,37,-1
 467.749023438 1151 l 1,38,-1
 496.749023438 1253 l 1,39,-1
 555.749023438 1355 l 1,40,41
 605.749023438 1431 605.749023438 1431 657.749023438 1545 c 1,42,43
 657.749023438 1545 657.749023438 1545 686.749023438 1618 c 1,44,-1
 701.749023438 1706 l 1,45,-1
 759.749023438 1764 l 1,46,47
 822.749023438 1786 822.749023438 1786 906.749023438 1779 c 1,0,1
1242.74902344 1443 m 1,48,49
 1171.74902344 1560 1171.74902344 1560 1008.74902344 1545 c 1,50,51
 937.749023438 1533 937.749023438 1533 862.749023438 1472 c 1,52,53
 629.749023438 945 629.749023438 945 789.749023438 1048 c 1,54,55
 1090.74902344 1121 1090.74902344 1121 1242.74902344 1443 c 1,48,49
EndSplineSet
Validated: 524321
EndChar
StartChar: Q
Encoding: 81 81 25
Width: 1035
GlyphClass: 2
Flags: W
LayerCount: 2
Fore
SplineSet
945.303710938 1771 m 1,0,-1
 972.303710938 1798 l 1,1,-1
 1012.30371094 1798 l 1,2,3
 1092.30371094 1770 1092.30371094 1770 1211.30371094 1758 c 1,4,5
 1323.30371094 1236 1323.30371094 1236 919.303710938 683 c 1,6,7
 870.303710938 642 870.303710938 642 826.303710938 564 c 1,8,9
 826.303710938 564 826.303710938 564 746.303710938 498 c 1,10,-1
 733.303710938 471 l 1,11,-1
 707.303710938 431 l 1,12,13
 663.303710938 406 663.303710938 406 627.303710938 365 c 1,14,15
 619.303710938 324 619.303710938 324 587.303710938 259 c 1,16,17
 611.303710938 94 611.303710938 94 454.303710938 20 c 1,18,19
 291.303710938 21 291.303710938 21 335.303710938 232 c 1,20,21
 -179.696289062 258 -179.696289062 258 96.3037109375 922 c 1,22,23
 96.3037109375 922 96.3037109375 922 176.303710938 1055 c 1,24,-1
 229.303710938 1148 l 1,25,-1
 255.303710938 1174 l 1,26,-1
 269.303710938 1214 l 1,27,28
 282.303710938 1217 282.303710938 1217 295.303710938 1241 c 1,29,30
 295.303710938 1241 295.303710938 1241 322.303710938 1267 c 2,31,32
 368.303710938 1312 368.303710938 1312 415.303710938 1387 c 1,33,34
 415.303710938 1387 415.303710938 1387 441.303710938 1440 c 1,35,36
 504.303710938 1500 504.303710938 1500 600.303710938 1559 c 1,37,38
 600.303710938 1559 600.303710938 1559 614.303710938 1586 c 1,39,-1
 640.303710938 1612 l 1,40,-1
 680.303710938 1652 l 1,41,42
 693.303710938 1655 693.303710938 1655 707.303710938 1679 c 1,43,44
 790.303710938 1706 790.303710938 1706 906.303710938 1771 c 1,45,46
 906.303710938 1771 906.303710938 1771 945.303710938 1771 c 1,0,-1
998.303710938 1546 m 1,47,48
 998.303710938 1546 998.303710938 1546 906.303710938 1546 c 1,49,50
 347.303710938 1163 347.303710938 1163 242.303710938 524 c 1,51,52
 280.303710938 499 280.303710938 499 335.303710938 484 c 1,53,54
 265.303710938 798 265.303710938 798 614.303710938 670 c 1,55,56
 666.303710938 741 666.303710938 741 760.303710938 829 c 1,57,58
 805.303710938 919 805.303710938 919 839.303710938 1042 c 1,59,60
 971.303710938 1260 971.303710938 1260 998.303710938 1546 c 1,47,48
EndSplineSet
Validated: 524321
EndChar
StartChar: R
Encoding: 82 82 26
Width: 1388
GlyphClass: 2
Flags: W
LayerCount: 2
Fore
SplineSet
673.5 1743 m 1,0,1
 720.5 1758 720.5 1758 789.5 1801 c 1,2,3
 1602.5 1872 1602.5 1872 1588.5 1351 c 1,4,5
 1588.5 1351 1588.5 1351 1370.5 1118 c 1,6,-1
 1210.5 1075 l 1,7,-1
 1109.5 1031 l 1,8,-1
 1065.5 1031 l 1,9,10
 1024.5 1005 1024.5 1005 949.5 988 c 1,11,12
 949.5 988 949.5 988 920.5 959 c 1,13,-1
 847.5 944 l 1,14,15
 857.5 789 857.5 789 949.5 625 c 1,16,17
 948.5 500 948.5 500 1007.5 334 c 1,18,19
 1004.5 268 1004.5 268 1022.5 189 c 1,20,21
 1022.5 189 1022.5 189 1036.5 146 c 1,22,23
 989.5 63 989.5 63 876.5 15 c 1,24,25
 876.5 15 876.5 15 731.5 73 c 1,26,-1
 702.5 189 l 1,27,28
 735.5 512 735.5 512 528.5 799 c 1,29,30
 457.5 680 457.5 680 383.5 480 c 1,31,32
 383.5 480 383.5 480 339.5 378 c 1,33,-1
 310.5 334 l 1,34,-1
 281.5 276 l 1,35,-1
 252.5 146 l 1,36,-1
 223.5 88 l 1,37,38
 117.5 45 117.5 45 5.5 102 c 1,39,40
 -5.5 165 -5.5 165 5.5 247 c 1,41,42
 54.5 336 54.5 336 92.5 465 c 1,43,44
 92.5 465 92.5 465 121.5 480 c 1,45,-1
 136.5 523 l 1,46,-1
 165.5 581 l 1,47,48
 180.5 657 180.5 657 238.5 741 c 1,49,50
 238.5 741 238.5 741 238.5 784 c 1,51,-1
 267.5 814 l 1,52,-1
 296.5 872 l 1,53,-1
 325.5 915 l 1,54,-1
 325.5 973 l 1,55,-1
 470.5 1235 l 1,56,-1
 499.5 1322 l 1,57,-1
 630.5 1641 l 1,58,-1
 673.5 1743 l 1,0,1
1283.5 1423 m 1,59,60
 1281.5 1569 1281.5 1569 847.5 1525 c 1,61,62
 771.5 1408 771.5 1408 702.5 1205 c 1,63,64
 702.5 1205 702.5 1205 688.5 1176 c 1,65,66
 837.5 1174 837.5 1174 993.5 1264 c 1,67,68
 1090.5 1278 1090.5 1278 1210.5 1336 c 2,69,70
 1210.5 1336 1210.5 1336 1240.5 1351 c 1,71,-1
 1269.5 1365 l 1,72,-1
 1283.5 1423 l 1,59,60
EndSplineSet
Validated: 524321
EndChar
StartChar: S
Encoding: 83 83 27
Width: 1043
GlyphClass: 2
Flags: W
HStem: 24 324<275.501 482.126>
LayerCount: 2
Fore
SplineSet
399.505859375 1196 m 1,0,1
 583.505859375 1546 583.505859375 1546 969.505859375 1797 c 1,2,3
 1456.50585938 1763 1456.50585938 1763 1308.50585938 1334 c 1,4,5
 1264.50585938 1323 1264.50585938 1323 1185.50585938 1319 c 1,6,7
 1029.50585938 1606 1029.50585938 1606 923.505859375 1442 c 1,8,9
 748.505859375 1358 748.505859375 1358 707.505859375 1149 c 1,10,11
 1210.50585938 1180 1210.50585938 1180 1077.50585938 718 c 1,12,13
 853.505859375 27 853.505859375 27 183.505859375 24 c 1,14,15
 -117.494140625 249 -117.494140625 249 75.505859375 610 c 1,16,17
 163.505859375 652 163.505859375 652 275.505859375 641 c 1,18,19
 304.505859375 516 304.505859375 516 275.505859375 348 c 1,20,21
 736.505859375 359 736.505859375 359 815.505859375 872 c 1,22,23
 273.505859375 799 273.505859375 799 399.505859375 1196 c 1,0,1
EndSplineSet
Validated: 524321
EndChar
StartChar: T
Encoding: 84 84 28
Width: 946
GlyphClass: 2
Flags: W
LayerCount: 2
Fore
SplineSet
1117 1781 m 1,0,1
 1117 1781 1117 1781 1225 1812 c 1,2,3
 1312 1813 1312 1813 1396 1750 c 1,4,5
 1392 1686 1392 1686 1365 1610 c 1,6,7
 1307 1591 1307 1591 1225 1548 c 1,8,9
 1225 1548 1225 1548 1117 1502 c 1,10,-1
 1070 1502 l 1,11,-1
 1039 1471 l 1,12,-1
 931 1455 l 1,13,-1
 900 1424 l 1,14,-1
 869 1393 l 1,15,-1
 744 1114 l 1,16,-1
 744 1067 l 1,17,18
 729 1062 729 1062 713 1036 c 2,19,20
 713 1036 713 1036 651 912 c 1,21,-1
 636 866 l 1,22,-1
 605 819 l 2,23,24
 593 797 593 797 589 757 c 1,25,26
 512 630 512 630 434 416 c 1,27,28
 434 416 434 416 403 385 c 1,29,-1
 388 323 l 1,30,-1
 341 260 l 1,31,32
 327 146 327 146 233 28 c 1,33,34
 86 -1 86 -1 0 136 c 1,35,36
 -1 196 -1 196 15 276 c 1,37,38
 137 420 137 420 202 648 c 1,39,40
 252 696 252 696 279 757 c 1,41,42
 279 757 279 757 295 804 c 1,43,-1
 357 943 l 1,44,-1
 388 990 l 1,45,-1
 419 1052 l 1,46,47
 465 1131 465 1131 512 1253 c 1,48,49
 512 1253 512 1253 543 1316 c 1,50,-1
 574 1378 l 1,51,-1
 558 1471 l 1,52,53
 218 1470 218 1470 357 1765 c 1,54,55
 357 1765 357 1765 543 1765 c 1,56,-1
 589 1765 l 1,57,58
 712 1728 712 1728 853 1750 c 1,59,60
 853 1750 853 1750 900 1750 c 1,61,-1
 962 1750 l 1,62,63
 1027 1774 1027 1774 1117 1781 c 1,0,1
EndSplineSet
Validated: 33
EndChar
StartChar: U
Encoding: 85 85 29
Width: 1426
GlyphClass: 2
Flags: W
LayerCount: 2
Fore
SplineSet
636 1768 m 1,0,1
 669 1775 669 1775 710 1798 c 1,2,3
 802 1809 802 1809 887 1724 c 1,4,5
 848 1501 848 1501 695 1266 c 1,6,7
 695 1266 695 1266 650 1162 c 1,8,-1
 636 1118 l 1,9,-1
 606 1088 l 1,10,-1
 591 1029 l 1,11,12
 557 966 557 966 517 852 c 1,13,14
 517 852 517 852 503 822 c 1,15,-1
 473 778 l 1,16,-1
 399 600 l 1,17,-1
 384 571 l 1,18,19
 326 470 326 470 310 334 c 1,20,21
 408 291 408 291 547 319 c 1,22,23
 670 363 670 363 783 482 c 1,24,25
 783 482 783 482 813 497 c 1,26,-1
 902 704 l 1,27,-1
 931 719 l 1,28,29
 970 778 970 778 1005 866 c 1,30,31
 1005 866 1005 866 1020 911 c 1,32,-1
 1050 940 l 1,33,-1
 1079 1014 l 1,34,-1
 1109 1044 l 1,35,36
 1120 1109 1120 1109 1153 1162 c 1,37,38
 1153 1162 1153 1162 1183 1221 c 1,39,-1
 1197 1280 l 1,40,-1
 1227 1340 l 1,41,-1
 1256 1414 l 1,42,-1
 1256 1473 l 1,43,44
 1339 1548 1339 1548 1375 1665 c 1,45,46
 1443 1754 1443 1754 1582 1739 c 1,47,48
 1630 1669 1630 1669 1626 1576 c 1,49,50
 1626 1576 1626 1576 1508 1428 c 1,51,52
 1484 1328 1484 1328 1419 1192 c 1,53,54
 1419 1192 1419 1192 1404 1147 c 1,55,-1
 1389 1118 l 1,56,-1
 1345 1000 l 1,57,-1
 1330 955 l 1,58,-1
 1271 837 l 2,59,60
 1239 780 1239 780 1212 704 c 1,61,62
 1139 597 1139 597 1094 438 c 1,63,64
 1094 438 1094 438 1064 423 c 1,65,-1
 1035 349 l 1,66,67
 992 275 992 275 946 157 c 1,68,69
 946 157 946 157 902 98 c 1,70,71
 785 69 785 69 636 98 c 1,72,73
 424 -9 424 -9 148 38 c 1,74,75
 18 154 18 154 0 349 c 1,76,77
 0 349 0 349 118 645 c 1,78,-1
 133 674 l 1,79,-1
 163 704 l 1,80,-1
 207 822 l 1,81,-1
 222 866 l 1,82,83
 237 871 237 871 251 896 c 2,84,85
 251 896 251 896 281 940 c 1,86,-1
 310 1014 l 1,87,88
 320 1084 320 1084 370 1147 c 1,89,90
 370 1147 370 1147 399 1221 c 1,91,-1
 414 1280 l 1,92,-1
 443 1340 l 1,93,-1
 488 1384 l 1,94,95
 510 1487 510 1487 576 1621 c 1,96,97
 576 1621 576 1621 591 1665 c 1,98,-1
 606 1694 l 1,99,-1
 636 1768 l 1,0,1
EndSplineSet
Validated: 33
EndChar
StartChar: V
Encoding: 86 86 30
Width: 1057
GlyphClass: 2
Flags: W
VStem: 151.643 256<852 1041.32> 241.643 257<1409.22 1573.82>
LayerCount: 2
Fore
SplineSet
286.642578125 1758 m 1,0,-1
 347.642578125 1818 l 1,1,2
 463.642578125 1830 463.642578125 1830 558.642578125 1743 c 1,3,4
 551.642578125 1689 551.642578125 1689 528.642578125 1637 c 1,5,6
 528.642578125 1637 528.642578125 1637 498.642578125 1516 c 1,7,8
 497.642578125 1467 497.642578125 1467 483.642578125 1395 c 1,9,10
 483.642578125 1395 483.642578125 1395 468.642578125 1365 c 1,11,-1
 468.642578125 1245 l 1,12,-1
 437.642578125 1199 l 1,13,-1
 407.642578125 897 l 1,14,-1
 407.642578125 852 l 1,15,-1
 392.642578125 807 l 1,16,-1
 407.642578125 746 l 1,17,18
 513.642578125 819 513.642578125 819 573.642578125 958 c 1,19,20
 677.642578125 1037 677.642578125 1037 754.642578125 1184 c 1,21,22
 769.642578125 1189 769.642578125 1189 784.642578125 1214 c 1,23,24
 831.642578125 1259 831.642578125 1259 875.642578125 1335 c 1,25,26
 875.642578125 1335 875.642578125 1335 905.642578125 1380 c 1,27,28
 1011.64257812 1472 1011.64257812 1472 1101.64257812 1637 c 1,29,30
 1101.64257812 1637 1101.64257812 1637 1131.64257812 1667 c 1,31,-1
 1162.64257812 1697 l 1,32,33
 1435.64257812 1912 1435.64257812 1912 1403.64257812 1577 c 1,34,35
 1268.64257812 1465 1268.64257812 1465 1162.64257812 1275 c 1,36,37
 1162.64257812 1275 1162.64257812 1275 1086.64257812 1199 c 2,38,39
 1008.64257812 1120 1008.64257812 1120 950.642578125 988 c 1,40,41
 935.642578125 984 935.642578125 984 920.642578125 958 c 1,42,43
 920.642578125 958 920.642578125 958 890.642578125 943 c 1,44,-1
 860.642578125 897 l 1,45,46
 810.642578125 839 810.642578125 839 769.642578125 746 c 1,47,48
 716.642578125 699 716.642578125 699 664.642578125 611 c 1,49,50
 664.642578125 611 664.642578125 611 633.642578125 565 c 1,51,-1
 603.642578125 520 l 1,52,53
 536.642578125 462 536.642578125 462 498.642578125 369 c 1,54,55
 498.642578125 369 498.642578125 369 452.642578125 324 c 1,56,57
 374.642578125 257 374.642578125 257 317.642578125 143 c 1,58,59
 317.642578125 143 317.642578125 143 286.642578125 128 c 1,60,-1
 271.642578125 98 l 1,61,-1
 226.642578125 52 l 1,62,-1
 181.642578125 7 l 1,63,64
 80.642578125 29 80.642578125 29 0.642578125 128 c 1,65,66
 -6.357421875 288 -6.357421875 288 60.642578125 460 c 1,67,68
 60.642578125 460 60.642578125 460 60.642578125 505 c 1,69,-1
 120.642578125 686 l 1,70,-1
 120.642578125 792 l 2,71,72
 120.642578125 853 120.642578125 853 151.642578125 928 c 1,73,74
 151.642578125 928 151.642578125 928 151.642578125 988 c 1,75,76
 185.642578125 1088 185.642578125 1088 181.642578125 1214 c 1,77,78
 181.642578125 1214 181.642578125 1214 196.642578125 1245 c 1,79,-1
 241.642578125 1486 l 1,80,-1
 241.642578125 1577 l 1,81,-1
 271.642578125 1652 l 1,82,-1
 286.642578125 1758 l 1,0,-1
EndSplineSet
Validated: 524321
EndChar
StartChar: W
Encoding: 87 87 31
Width: 1782
GlyphClass: 2
Flags: W
VStem: 152.663 290<795.404 917> 884.663 305<688 912.263> 915.663 274<691.471 780 810 912.263>
LayerCount: 2
Fore
SplineSet
396.666992188 1740 m 1,0,-1
 472.666992188 1801 l 1,1,2
 552.666992188 1793 552.666992188 1793 625.666992188 1740 c 1,3,4
 623.666992188 1607 623.666992188 1607 564.666992188 1420 c 1,5,6
 564.666992188 1420 564.666992188 1420 533.666992188 1207 c 1,7,-1
 533.666992188 1161 l 1,8,-1
 472.666992188 1039 l 1,9,-1
 472.666992188 963 l 1,10,-1
 442.666992188 917 l 1,11,-1
 442.666992188 871 l 1,12,-1
 442.666992188 795 l 1,13,14
 539.666992188 878 539.666992188 878 610.666992188 1024 c 1,15,16
 759.666992188 1137 759.666992188 1137 854.666992188 1344 c 1,17,18
 902.666992188 1385 902.666992188 1385 945.666992188 1466 c 1,19,20
 945.666992188 1466 945.666992188 1466 991.666992188 1511 c 1,21,22
 1012.66699219 1560 1012.66699219 1560 1067.66699219 1649 c 1,23,24
 1067.66699219 1649 1067.66699219 1649 1098.66699219 1694 c 1,25,-1
 1128.66699219 1740 l 1,26,-1
 1159.66699219 1786 l 1,27,28
 1237.66699219 1802 1237.66699219 1802 1341.66699219 1771 c 1,29,30
 1341.66699219 1771 1341.66699219 1771 1372.66699219 1679 c 1,31,32
 1350.66699219 1593 1350.66699219 1593 1296.66699219 1481 c 1,33,34
 1296.66699219 1481 1296.66699219 1481 1280.66699219 1435 c 1,35,-1
 1280.66699219 1389 l 1,36,-1
 1265.66699219 1344 l 1,37,-1
 1265.66699219 1298 l 1,38,-1
 1235.66699219 1054 l 1,39,-1
 1219.66699219 993 l 1,40,-1
 1204.66699219 917 l 1,41,-1
 1189.66699219 810 l 1,42,-1
 1189.66699219 764 l 1,43,-1
 1189.66699219 688 l 1,44,45
 1289.66699219 771 1289.66699219 771 1357.66699219 917 c 1,46,47
 1465.66699219 1031 1465.66699219 1031 1585.66699219 1252 c 1,48,49
 1585.66699219 1252 1585.66699219 1252 1616.66699219 1283 c 1,50,-1
 1631.66699219 1313 l 1,51,-1
 1662.66699219 1344 l 1,52,-1
 1692.66699219 1389 l 1,53,-1
 1707.66699219 1435 l 1,54,55
 1753.66699219 1465 1753.66699219 1465 1799.66699219 1527 c 1,56,57
 1799.66699219 1527 1799.66699219 1527 1829.66699219 1588 c 1,58,-1
 1875.66699219 1618 l 1,59,60
 1887.66699219 1640 1887.66699219 1640 1890.66699219 1679 c 1,61,62
 1890.66699219 1679 1890.66699219 1679 1936.66699219 1740 c 1,63,64
 2038.66699219 1790 2038.66699219 1790 2180.66699219 1740 c 1,65,66
 2186.66699219 1665 2186.66699219 1665 2165.66699219 1572 c 1,67,68
 2117.66699219 1501 2117.66699219 1501 2028.66699219 1435 c 1,69,70
 2028.66699219 1435 2028.66699219 1435 2012.66699219 1389 c 1,71,72
 1944.66699219 1330 1944.66699219 1330 1906.66699219 1237 c 1,73,74
 1860.66699219 1191 1860.66699219 1191 1814.66699219 1115 c 1,75,76
 1768.66699219 1070 1768.66699219 1070 1723.66699219 993 c 1,77,78
 1723.66699219 993 1723.66699219 993 1692.66699219 947 c 1,79,-1
 1570.66699219 749 l 1,80,81
 1490.66699219 653 1490.66699219 653 1418.66699219 505 c 1,82,83
 1311.66699219 416 1311.66699219 416 1235.66699219 261 c 1,84,85
 1201.66699219 235 1201.66699219 235 1174.66699219 185 c 1,86,87
 1174.66699219 185 1174.66699219 185 1128.66699219 140 c 1,88,-1
 1082.66699219 109 l 1,89,-1
 1052.66699219 48 l 1,90,91
 946.666992188 19 946.666992188 19 823.666992188 63 c 1,92,93
 799.666992188 270 799.666992188 270 884.666992188 505 c 1,94,95
 879.666992188 626 879.666992188 626 915.666992188 780 c 1,96,97
 915.666992188 780 915.666992188 780 915.666992188 947 c 1,98,99
 792.666992188 837 792.666992188 837 671.666992188 643 c 1,100,101
 671.666992188 643 671.666992188 643 655.666992188 612 c 1,102,-1
 625.666992188 582 l 1,103,-1
 594.666992188 566 l 1,104,-1
 579.666992188 521 l 1,105,-1
 549.666992188 505 l 1,106,-1
 518.666992188 460 l 1,107,-1
 503.666992188 414 l 1,108,109
 456.666992188 369 456.666992188 369 411.666992188 292 c 1,110,111
 352.666992188 215 352.666992188 215 244.666992188 109 c 1,112,113
 244.666992188 109 244.666992188 109 198.666992188 48 c 1,114,115
 116.666992188 24 116.666992188 24 30.6669921875 33 c 1,116,117
 -2.3330078125 103 -2.3330078125 103 0.6669921875 216 c 1,118,119
 83.6669921875 359 83.6669921875 359 91.6669921875 551 c 1,120,121
 149.666992188 665 149.666992188 665 152.666992188 825 c 1,122,123
 173.666992188 877 173.666992188 877 183.666992188 947 c 1,124,125
 183.666992188 947 183.666992188 947 213.666992188 993 c 1,126,-1
 229.666992188 1054 l 1,127,128
 249.666992188 1157 249.666992188 1157 305.666992188 1298 c 1,129,130
 305.666992188 1298 305.666992188 1298 320.666992188 1389 c 1,131,-1
 335.666992188 1450 l 1,132,-1
 366.666992188 1649 l 1,133,-1
 396.666992188 1740 l 1,0,-1
EndSplineSet
Validated: 524321
EndChar
StartChar: X
Encoding: 88 88 32
Width: 1398
GlyphClass: 2
Flags: W
VStem: 690.998 310<1346.56 1662.95> 756.998 309<271.238 623.838>
LayerCount: 2
Fore
SplineSet
691 1652 m 1,0,1
 729 1717 729 1717 805 1799 c 1,2,3
 1028 1727 1028 1727 1001 1343 c 1,4,5
 1173 1401 1173 1401 1327 1571 c 1,6,7
 1420 1600 1420 1600 1506 1685 c 1,8,9
 1572 1703 1572 1703 1653 1750 c 1,10,11
 1756 1760 1756 1760 1848 1701 c 1,12,13
 1848 1701 1848 1701 1815 1571 c 1,14,15
 1731 1535 1731 1535 1653 1457 c 1,16,17
 1419 1361 1419 1361 1245 1131 c 1,18,19
 1245 1131 1245 1131 1196 1115 c 1,20,-1
 1164 1082 l 1,21,-1
 1066 1017 l 1,22,-1
 1033 984 l 1,23,24
 1028 896 1028 896 1050 805 c 1,25,26
 1043 757 1043 757 1050 675 c 1,27,28
 1050 675 1050 675 1033 626 c 1,29,30
 1059 557 1059 557 1066 463 c 1,31,32
 1066 463 1066 463 1066 398 c 1,33,-1
 1066 349 l 1,34,-1
 1099 170 l 1,35,-1
 1099 121 l 1,36,-1
 1066 56 l 1,37,38
 776 -133 776 -133 757 658 c 1,39,40
 490 500 490 500 300 170 c 1,41,42
 300 170 300 170 219 88 c 1,43,44
 -39 18 -39 18 7 300 c 1,45,46
 141 410 141 410 300 626 c 1,47,48
 300 626 300 626 317 658 c 1,49,-1
 366 691 l 1,50,51
 409 753 409 753 496 838 c 1,52,53
 496 838 496 838 528 887 c 1,54,55
 617 945 617 945 724 1066 c 1,56,57
 724 1066 724 1066 757 1131 c 1,58,59
 767 1244 767 1244 724 1375 c 1,60,61
 741 1500 741 1500 691 1652 c 1,0,1
EndSplineSet
Validated: 33
EndChar
StartChar: Y
Encoding: 89 89 33
Width: 1208
GlyphClass: 2
Flags: W
VStem: 480.998 224<1172 1672.86> 495.998 238<1229.92 1678>
LayerCount: 2
Fore
SplineSet
1285 1767 m 1,0,-1
 1329 1812 l 1,1,2
 1434 1830 1434 1830 1493 1738 c 1,3,4
 1493 1738 1493 1738 1508 1723 c 1,5,-1
 1493 1738 l 1,6,-1
 1508 1723 l 1,7,8
 1450 1590 1450 1590 1315 1470 c 1,9,10
 1315 1470 1315 1470 1300 1425 c 1,11,-1
 1270 1410 l 1,12,-1
 1240 1351 l 1,13,-1
 1210 1306 l 1,14,-1
 1181 1262 l 1,15,-1
 1151 1232 l 1,16,-1
 1121 1187 l 1,17,-1
 1062 1113 l 1,18,-1
 1002 1024 l 1,19,20
 955 982 955 982 913 905 c 1,21,22
 913 905 913 905 839 830 c 1,23,-1
 824 800 l 1,24,-1
 794 741 l 1,25,26
 725 694 725 694 675 607 c 1,27,28
 675 607 675 607 645 592 c 1,29,-1
 601 533 l 1,30,-1
 571 473 l 1,31,32
 512 390 512 390 407 295 c 1,33,34
 407 295 407 295 258 57 c 1,35,36
 185 26 185 26 80 12 c 1,37,38
 -21 81 -21 81 5 220 c 1,39,40
 89 292 89 292 169 414 c 1,41,42
 169 414 169 414 199 443 c 1,43,-1
 229 473 l 1,44,-1
 288 577 l 1,45,-1
 303 607 l 1,46,47
 318 606 318 606 333 622 c 2,48,49
 333 622 333 622 377 667 c 1,50,-1
 437 771 l 1,51,-1
 481 815 l 1,52,53
 409 1081 409 1081 481 1410 c 1,54,55
 471 1513 471 1513 496 1678 c 1,56,57
 496 1678 496 1678 556 1797 c 1,58,59
 644 1804 644 1804 734 1738 c 1,60,61
 734 1738 734 1738 734 1425 c 1,62,63
 705 1322 705 1322 705 1172 c 1,64,65
 705 1172 705 1172 720 1128 c 1,66,67
 875 1225 875 1225 987 1425 c 1,68,69
 1039 1465 1039 1465 1077 1544 c 1,70,71
 1171 1614 1171 1614 1255 1752 c 1,72,73
 1255 1752 1255 1752 1285 1767 c 1,0,-1
EndSplineSet
Validated: 37
EndChar
StartChar: Z
Encoding: 90 90 34
Width: 1385
GlyphClass: 2
Flags: W
LayerCount: 2
Fore
SplineSet
1070 1445 m 1,0,1
 594 1486 594 1486 836 1782 c 1,2,3
 836 1782 836 1782 1084 1709 c 1,4,-1
 1128 1694 l 1,5,-1
 1172 1694 l 1,6,-1
 1216 1694 l 1,7,-1
 1246 1679 l 1,8,-1
 1290 1679 l 1,9,10
 1351 1717 1351 1717 1451 1738 c 1,11,12
 1451 1738 1451 1738 1626 1738 c 1,13,14
 1682 1677 1682 1677 1685 1592 c 1,15,16
 1685 1592 1685 1592 1582 1445 c 1,17,18
 1506 1423 1506 1423 1451 1343 c 1,19,20
 1333 1286 1333 1286 1231 1152 c 1,21,22
 1231 1152 1231 1152 1202 1138 c 1,23,-1
 1172 1108 l 1,24,-1
 1158 1079 l 1,25,26
 1111 1037 1111 1037 1041 991 c 1,27,28
 1004 941 1004 941 938 889 c 1,29,30
 938 889 938 889 894 845 c 1,31,32
 845 805 845 805 806 728 c 1,33,34
 806 728 806 728 674 610 c 1,35,-1
 660 581 l 1,36,37
 645 577 645 577 630 552 c 1,38,39
 630 552 630 552 499 449 c 1,40,-1
 455 405 l 1,41,42
 475 376 475 376 513 347 c 1,43,44
 984 384 984 384 865 39 c 1,45,46
 673 4 673 4 411 54 c 1,47,48
 353 48 353 48 294 69 c 1,49,50
 294 69 294 69 250 69 c 1,51,-1
 118 54 l 1,52,-1
 74 83 l 1,53,-1
 30 83 l 1,54,55
 -7 184 -7 184 1 303 c 1,56,57
 1 303 1 303 103 435 c 1,58,59
 155 458 155 458 191 508 c 1,60,61
 191 508 191 508 220 523 c 1,62,-1
 250 552 l 1,63,-1
 279 581 l 1,64,-1
 308 625 l 1,65,-1
 396 684 l 1,66,-1
 601 889 l 1,67,-1
 616 918 l 1,68,69
 630 916 630 916 645 933 c 1,70,71
 660 936 660 936 674 962 c 1,72,73
 737 1020 737 1020 806 1123 c 1,74,75
 896 1173 896 1173 967 1269 c 1,76,77
 967 1269 967 1269 997 1284 c 1,78,-1
 1026 1313 l 1,79,-1
 1055 1343 l 1,80,-1
 1084 1372 l 1,81,-1
 1070 1445 l 1,0,1
EndSplineSet
Validated: 33
EndChar
StartChar: asciicircum
Encoding: 94 94 35
Width: 623
GlyphClass: 2
Flags: W
HStem: 1122 524
LayerCount: 2
Fore
SplineSet
409.052734375 1646 m 4,0,1
 464.052734375 1646 464.052734375 1646 524.305664062 1578 c 4,2,3
 543.133789062 1557 543.133789062 1557 606.969726562 1467 c 6,4,-1
 723.103515625 1297 l 6,5,6
 742.71484375 1267 742.71484375 1267 735.081054688 1236 c 4,7,8
 725.96875 1199 725.96875 1199 691.196289062 1171.5 c 132,-1,9
 656.423828125 1144 656.423828125 1144 620.423828125 1144 c 4,10,11
 587.423828125 1144 587.423828125 1144 564.565429688 1173 c 4,12,13
 506.73046875 1263 506.73046875 1263 377.596679688 1433 c 5,14,15
 47.005859375 1122 47.005859375 1122 -24.994140625 1122 c 4,16,17
 -60.994140625 1122 -60.994140625 1122 -81.5986328125 1150 c 132,-1,18
 -102.203125 1178 -102.203125 1178 -93.3369140625 1214 c 4,19,20
 -84.7177734375 1249 -84.7177734375 1249 -46.576171875 1278 c 4,21,22
 21.72265625 1332 21.72265625 1332 340.41796875 1615 c 4,23,24
 375.052734375 1646 375.052734375 1646 409.052734375 1646 c 4,0,1
EndSplineSet
Validated: 524321
EndChar
StartChar: underscore
Encoding: 95 95 36
Width: 1158
GlyphClass: 2
Flags: W
HStem: -345 185<0 1358>
LayerCount: 2
Fore
SplineSet
968.234375 -345 m 2,0,1
 897.234375 -345 897.234375 -345 757.18359375 -340 c 128,-1,2
 617.1328125 -335 617.1328125 -335 546.1328125 -335 c 2,3,-1
 101.1328125 -335 l 2,4,5
 78.1328125 -335 78.1328125 -335 30.18359375 -340 c 128,-1,6
 -17.765625 -345 -17.765625 -345 -39.765625 -345 c 1,7,-1
 32.3583984375 -160 l 1,8,9
 132.358398438 -160 132.358398438 -160 332.943359375 -158.5 c 128,-1,10
 533.528320312 -157 533.528320312 -157 633.528320312 -157 c 0,11,12
 704.528320312 -157 704.528320312 -157 842.883789062 -162.5 c 128,-1,13
 981.239257812 -168 981.239257812 -168 1052.23925781 -168 c 2,14,-1
 1390.35839844 -160 l 1,15,-1
 1318.234375 -345 l 1,16,-1
 968.234375 -345 l 2,0,1
EndSplineSet
EndChar
StartChar: grave
Encoding: 96 96 37
Width: 228
GlyphClass: 2
Flags: W
HStem: 1178 483
VStem: 0 428
LayerCount: 2
Fore
SplineSet
428 1267 m 0,0,1
 428 1231 428 1231 399.5 1204.5 c 128,-1,2
 371 1178 371 1178 335 1178 c 0,3,4
 292 1178 292 1178 263 1220 c 2,5,-1
 163 1369 l 2,6,7
 110 1442 110 1442 39 1497 c 0,8,9
 0 1527 0 1527 0 1568 c 0,10,11
 0 1604 0 1604 26.5 1632.5 c 128,-1,12
 53 1661 53 1661 89 1661 c 0,13,14
 151 1661 151 1661 291 1495 c 0,15,16
 428 1331 428 1331 428 1267 c 0,0,1
EndSplineSet
Validated: 1
EndChar
StartChar: a
Encoding: 97 97 38
Width: 668
GlyphClass: 2
Flags: W
LayerCount: 2
Fore
SplineSet
617 1071 m 1,0,1
 334 1097 334 1097 492 1308 c 1,2,3
 622 1268 622 1268 797 1285 c 1,4,5
 838 1275 838 1275 888 1240 c 1,6,7
 888 1240 888 1240 899 1139 c 1,8,9
 849 1073 849 1073 820 969 c 1,10,11
 820 969 820 969 809 946 c 1,12,13
 771 895 771 895 752 822 c 1,14,15
 752 822 752 822 684 732 c 1,16,-1
 673 687 l 1,17,-1
 650 664 l 1,18,-1
 549 404 l 1,19,-1
 526 370 l 1,20,-1
 526 336 l 1,21,-1
 504 302 l 1,22,-1
 481 257 l 1,23,-1
 458 156 l 1,24,-1
 436 110 l 1,25,-1
 436 65 l 1,26,27
 157 -86 157 -86 -50 269 c 1,28,29
 -47 670 -47 670 334 901 c 1,30,31
 420 897 420 897 549 867 c 1,32,33
 549 867 549 867 583 924 c 1,34,35
 604 984 604 984 617 1071 c 1,0,1
425 687 m 1,36,37
 425 687 425 687 345 698 c 1,38,39
 246 627 246 627 165 461 c 1,40,41
 123 311 123 311 266 291 c 1,42,43
 395 448 395 448 425 687 c 1,36,37
EndSplineSet
Validated: 33
EndChar
StartChar: b
Encoding: 98 98 39
Width: 924
GlyphClass: 2
Flags: W
LayerCount: 2
Fore
SplineSet
427.809570312 1547 m 1,0,1
 500.809570312 1602 500.809570312 1602 606.809570312 1626 c 1,2,3
 817.809570312 1623 817.809570312 1623 685.809570312 1266 c 1,4,5
 845.809570312 1376 845.809570312 1376 1011.80957031 1300 c 1,6,7
 1027.80957031 1208 1027.80957031 1208 1022.80957031 1064 c 1,8,9
 1003.80957031 1013 1003.80957031 1013 955.809570312 929 c 1,10,11
 938.809570312 873 938.809570312 873 898.809570312 794 c 2,12,13
 898.809570312 794 898.809570312 794 887.809570312 772 c 1,14,-1
 876.809570312 738 l 1,15,-1
 820.809570312 614 l 1,16,-1
 797.809570312 569 l 1,17,-1
 775.809570312 524 l 1,18,-1
 752.809570312 479 l 1,19,-1
 685.809570312 333 l 1,20,-1
 606.809570312 232 l 2,21,22
 598.809570312 216 598.809570312 216 595.809570312 187 c 1,23,24
 541.809570312 133 541.809570312 133 449.809570312 63 c 1,25,26
 449.809570312 63 449.809570312 63 427.809570312 41 c 1,27,28
 295.809570312 9 295.809570312 9 146.809570312 41 c 1,29,30
 146.809570312 41 146.809570312 41 56.8095703125 41 c 1,31,32
 -4.1904296875 112 -4.1904296875 112 0.8095703125 232 c 1,33,34
 61.8095703125 323 61.8095703125 323 112.809570312 479 c 1,35,36
 112.809570312 479 112.809570312 479 135.809570312 502 c 1,37,-1
 135.809570312 536 l 1,38,-1
 191.809570312 625 l 1,39,-1
 236.809570312 727 l 1,40,-1
 247.809570312 749 l 1,41,42
 282.809570312 810 282.809570312 810 314.809570312 907 c 1,43,44
 314.809570312 907 314.809570312 907 337.809570312 951 c 1,45,-1
 348.809570312 996 l 1,46,-1
 370.809570312 1041 l 1,47,-1
 393.809570312 1086 l 1,48,-1
 404.809570312 1131 l 1,49,50
 432.809570312 1182 432.809570312 1182 460.809570312 1266 c 1,51,52
 460.809570312 1266 460.809570312 1266 472.809570312 1289 c 1,53,-1
 483.809570312 1345 l 1,54,-1
 517.809570312 1390 l 1,55,-1
 517.809570312 1424 l 1,56,57
 419.809570312 1437 419.809570312 1437 427.809570312 1547 c 1,0,1
797.809570312 1008 m 1,58,59
 793.809570312 1066 793.809570312 1066 730.809570312 1064 c 1,60,61
 604.809570312 1020 604.809570312 1020 505.809570312 907 c 1,62,63
 505.809570312 907 505.809570312 907 404.809570312 670 c 1,64,-1
 393.809570312 637 l 1,65,-1
 370.809570312 614 l 1,66,-1
 359.809570312 580 l 1,67,-1
 348.809570312 547 l 1,68,-1
 326.809570312 502 l 1,69,-1
 314.809570312 468 l 1,70,-1
 292.809570312 423 l 1,71,-1
 281.809570312 378 l 1,72,-1
 258.809570312 333 l 1,73,-1
 236.809570312 299 l 1,74,75
 240.809570312 270 240.809570312 270 258.809570312 243 c 1,76,77
 567.809570312 314 567.809570312 314 696.809570312 839 c 1,78,79
 743.809570312 903 743.809570312 903 797.809570312 1008 c 1,58,59
EndSplineSet
Validated: 524321
EndChar
StartChar: c
Encoding: 99 99 40
Width: 846
GlyphClass: 2
Flags: W
LayerCount: 2
Fore
SplineSet
625 1298 m 1,0,1
 673 1293 673 1293 732 1322 c 1,2,3
 782 1324 782 1324 827 1310 c 1,4,5
 827 1310 827 1310 862 1310 c 1,6,7
 1019 1144 1019 1144 886 919 c 1,8,9
 744 945 744 945 755 1097 c 1,10,11
 637 1058 637 1058 542 955 c 1,12,13
 385 823 385 823 294 599 c 1,14,15
 294 599 294 599 270 588 c 1,16,17
 66 172 66 172 353 256 c 1,18,19
 353 256 353 256 542 386 c 1,20,-1
 554 410 l 1,21,22
 668 428 668 428 673 315 c 1,23,24
 313 -164 313 -164 -3 137 c 1,25,26
 -3 137 -3 137 -50 220 c 1,27,28
 66 846 66 846 625 1298 c 1,0,1
EndSplineSet
Validated: 33
EndChar
StartChar: d
Encoding: 100 100 41
Width: 942
GlyphClass: 2
Flags: W
HStem: 1119 206<696 829.581> 1291 21G<836.5 937>
LayerCount: 2
Fore
SplineSet
948 1692 m 1,0,1
 976 1765 976 1765 1051 1806 c 1,2,3
 1190 1837 1190 1837 1292 1726 c 1,4,5
 1283 1615 1283 1615 1223 1485 c 1,6,7
 1223 1485 1223 1485 1223 1428 c 1,8,9
 1167 1351 1167 1351 1131 1222 c 1,10,11
 1086 1164 1086 1164 1063 1073 c 1,12,13
 1063 1073 1063 1073 1040 1061 c 1,14,-1
 1028 1027 l 1,15,16
 1016 980 1016 980 982 924 c 1,17,18
 982 924 982 924 971 901 c 1,19,-1
 948 844 l 1,20,-1
 925 809 l 1,21,-1
 925 763 l 1,22,-1
 891 717 l 1,23,-1
 868 660 l 1,24,-1
 845 614 l 1,25,26
 810 566 810 566 788 488 c 1,27,28
 788 488 788 488 765 477 c 1,29,30
 747 403 747 403 696 316 c 1,31,32
 696 316 696 316 696 282 c 1,33,-1
 673 271 l 1,34,35
 664 169 664 169 616 30 c 1,36,37
 507 -5 507 -5 398 64 c 1,38,39
 225 -11 225 -11 42 99 c 1,40,41
 -76 427 -76 427 134 752 c 1,42,43
 269 1116 269 1116 639 1325 c 1,44,45
 759 1337 759 1337 914 1291 c 1,46,47
 914 1291 914 1291 937 1302 c 1,48,49
 1019 1416 1019 1416 1051 1589 c 1,50,51
 1051 1589 1051 1589 1063 1611 c 1,52,53
 992 1622 992 1622 948 1692 c 1,0,1
833 1084 m 1,54,55
 779 1118 779 1118 696 1119 c 1,56,57
 696 1119 696 1119 650 1050 c 1,58,-1
 581 1061 l 1,59,60
 312 795 312 795 191 374 c 1,61,62
 191 374 191 374 214 282 c 1,63,64
 532 234 532 234 593 580 c 1,65,66
 729 740 729 740 776 981 c 1,67,68
 815 1016 815 1016 833 1084 c 1,54,55
EndSplineSet
Validated: 33
EndChar
StartChar: e
Encoding: 101 101 42
Width: 688
GlyphClass: 2
Flags: W
LayerCount: 2
Fore
SplineSet
526.169921875 1290 m 1,0,1
 526.169921875 1290 526.169921875 1290 666.169921875 1348 c 1,2,3
 959.169921875 1275 959.169921875 1275 865.169921875 939 c 1,4,5
 676.169921875 637 676.169921875 637 269.169921875 624 c 1,6,7
 155.169921875 464 155.169921875 464 141.169921875 250 c 1,8,9
 234.169921875 259 234.169921875 259 339.169921875 320 c 1,10,11
 400.169921875 332 400.169921875 332 468.169921875 367 c 1,12,13
 623.169921875 295 623.169921875 295 433.169921875 168 c 1,14,15
 351.169921875 140 351.169921875 140 281.169921875 63 c 1,16,17
 281.169921875 63 281.169921875 63 199.169921875 28 c 1,18,-1
 164.169921875 17 l 1,19,20
 147.169921875 18 147.169921875 18 129.169921875 5 c 1,21,22
 51.169921875 17 51.169921875 17 -33.830078125 63 c 1,23,24
 -41.830078125 112 -41.830078125 112 -80.830078125 168 c 1,25,26
 -80.830078125 168 -80.830078125 168 -80.830078125 332 c 1,27,28
 -9.830078125 435 -9.830078125 435 12.169921875 589 c 1,29,30
 12.169921875 589 12.169921875 589 36.169921875 612 c 1,31,-1
 47.169921875 647 l 1,32,-1
 59.169921875 682 l 1,33,-1
 82.169921875 717 l 1,34,-1
 106.169921875 752 l 1,35,36
 129.169921875 817 129.169921875 817 176.169921875 904 c 1,37,38
 176.169921875 904 176.169921875 904 223.169921875 963 c 1,39,-1
 234.169921875 986 l 1,40,-1
 293.169921875 1079 l 1,41,-1
 316.169921875 1091 l 1,42,-1
 339.169921875 1126 l 1,43,-1
 363.169921875 1149 l 1,44,-1
 374.169921875 1185 l 1,45,46
 455.169921875 1215 455.169921875 1215 526.169921875 1290 c 1,0,1
666.169921875 986 m 1,47,48
 716.169921875 1054 716.169921875 1054 654.169921875 1114 c 1,49,50
 526.169921875 1063 526.169921875 1063 433.169921875 928 c 1,51,52
 307.169921875 763 307.169921875 763 573.169921875 881 c 1,53,54
 602.169921875 928 602.169921875 928 666.169921875 986 c 1,47,48
EndSplineSet
Validated: 524321
EndChar
StartChar: f
Encoding: 102 102 43
Width: 721
GlyphClass: 2
Flags: W
LayerCount: 2
Fore
SplineSet
759 1747 m 1,0,1
 759 1747 759 1747 831 1771 c 1,2,3
 1056 1757 1056 1757 1072 1518 c 1,4,5
 1024 1482 1024 1482 951 1482 c 1,6,7
 919 1556 919 1556 831 1590 c 1,8,9
 800 1567 800 1567 759 1518 c 1,10,11
 708 1436 708 1436 686 1313 c 1,12,13
 649 1271 649 1271 614 1204 c 1,14,15
 614 1204 614 1204 602 1156 c 1,16,-1
 590 1120 l 1,17,-1
 566 1084 l 1,18,-1
 505 951 l 1,19,-1
 481 879 l 1,20,21
 639 904 639 904 662 770 c 1,22,23
 548 669 548 669 361 602 c 1,24,25
 361 602 361 602 301 481 c 1,26,-1
 264 397 l 1,27,-1
 252 361 l 1,28,-1
 240 324 l 1,29,-1
 228 300 l 1,30,31
 216 296 216 296 204 276 c 1,32,33
 204 276 204 276 204 240 c 1,34,35
 177 205 177 205 156 144 c 1,36,37
 156 144 156 144 132 107 c 1,38,-1
 120 71 l 1,39,-1
 108 35 l 1,40,41
 35 -2 35 -2 -49 35 c 1,42,43
 -62 271 -62 271 96 481 c 1,44,45
 96 481 96 481 108 553 c 1,46,47
 -6 567 -6 567 -25 686 c 1,48,49
 60 752 60 752 216 770 c 1,50,51
 254 836 254 836 301 951 c 1,52,53
 301 951 301 951 325 975 c 1,54,-1
 337 1012 l 1,55,-1
 349 1048 l 1,56,-1
 409 1144 l 1,57,-1
 421 1180 l 1,58,-1
 433 1216 l 1,59,-1
 445 1253 l 1,60,-1
 457 1289 l 1,61,-1
 481 1325 l 1,62,-1
 505 1385 l 1,63,-1
 542 1446 l 1,64,-1
 566 1506 l 2,65,66
 593 1564 593 1564 662 1638 c 1,67,68
 662 1638 662 1638 674 1675 c 1,69,70
 716 1700 716 1700 759 1747 c 1,0,1
EndSplineSet
Validated: 33
EndChar
StartChar: g
Encoding: 103 103 44
Width: 1015
GlyphClass: 2
Flags: W
LayerCount: 2
Fore
SplineSet
1066 1724 m 1,0,1
 1080 1721 1080 1721 1094 1739 c 1,2,3
 1226 1770 1226 1770 1269 1629 c 1,4,5
 1269 1629 1269 1629 1228 1536 c 1,6,7
 1076 1478 1076 1478 945 1317 c 1,8,9
 1153 808 1153 808 716 550 c 1,10,11
 805 144 805 144 528 -153 c 1,12,13
 349 -454 349 -454 29 -325 c 1,14,15
 -215 -70 -215 -70 2 207 c 1,16,17
 2 207 2 207 96 159 c 1,18,19
 135 -392 135 -392 487 191 c 1,20,21
 487 191 487 191 487 316 c 1,22,23
 404 302 404 302 326 377 c 1,24,25
 238 416 238 416 271 550 c 1,26,27
 271 550 271 550 234 643 c 1,28,29
 240 649 240 649 248 735 c 1,30,31
 321 1215 321 1215 803 1387 c 1,32,33
 867 1599 867 1599 1066 1724 c 1,0,1
921 885 m 1,34,35
 951 1086 951 1086 749 1103 c 1,36,37
 234 761 234 761 569 583 c 1,38,39
 767 726 767 726 889 870 c 1,40,41
 889 870 889 870 921 885 c 1,34,35
EndSplineSet
Validated: 33
EndChar
StartChar: h
Encoding: 104 104 45
Width: 1008
GlyphClass: 2
Flags: W
VStem: 0 219<86.0938 251.64>
LayerCount: 2
Fore
SplineSet
702 1752 m 1,0,1
 702 1752 702 1752 782 1798 c 1,2,3
 827 1793 827 1793 886 1775 c 1,4,5
 886 1775 886 1775 897 1683 c 1,6,-1
 851 1579 l 1,7,-1
 840 1556 l 1,8,9
 829 1498 829 1498 794 1407 c 1,10,11
 794 1407 794 1407 771 1372 c 1,12,-1
 771 1338 l 1,13,14
 754 1302 754 1302 713 1257 c 1,15,16
 713 1257 713 1257 702 1223 c 1,17,-1
 690 1188 l 1,18,-1
 679 1154 l 1,19,-1
 679 1119 l 1,20,21
 861 1168 861 1168 1047 1315 c 1,22,23
 1136 1314 1136 1314 1208 1246 c 1,24,25
 1209 1182 1209 1182 1185 1096 c 0,26,27
 1165 1031 1165 1031 1116 958 c 1,28,29
 1100 900 1100 900 1058 820 c 2,30,31
 1058 820 1058 820 1047 797 c 1,32,33
 1015 746 1015 746 1001 682 c 1,34,35
 989 678 989 678 978 659 c 1,36,37
 978 659 978 659 966 625 c 1,38,-1
 943 579 l 1,39,-1
 932 544 l 1,40,-1
 851 372 l 1,41,-1
 840 337 l 1,42,-1
 817 291 l 1,43,-1
 794 222 l 1,44,-1
 771 165 l 1,45,-1
 748 119 l 1,46,-1
 725 61 l 1,47,48
 679 22 679 22 598 15 c 1,49,50
 543 52 543 52 529 130 c 1,51,52
 566 182 566 182 575 245 c 1,53,54
 575 245 575 245 690 441 c 1,55,-1
 713 544 l 2,56,57
 728 596 728 596 771 671 c 1,58,59
 771 671 771 671 828 797 c 1,60,-1
 840 832 l 1,61,-1
 863 878 l 1,62,-1
 897 935 l 1,63,-1
 909 993 l 1,64,65
 503 911 503 911 380 487 c 1,66,67
 267 346 267 346 219 130 c 1,68,69
 159 46 159 46 46 50 c 1,70,71
 3 96 3 96 0 176 c 1,72,73
 65 278 65 278 115 429 c 1,74,75
 152 461 152 461 184 521 c 2,76,77
 184 521 184 521 207 567 c 1,78,-1
 219 613 l 1,79,-1
 242 659 l 1,80,-1
 265 717 l 1,81,-1
 288 751 l 2,82,83
 342 836 342 836 380 970 c 1,84,85
 489 1119 489 1119 529 1338 c 1,86,87
 529 1338 529 1338 564 1361 c 1,88,-1
 598 1418 l 1,89,90
 620 1474 620 1474 633 1556 c 1,91,92
 515 1587 515 1587 529 1706 c 1,93,94
 599 1752 599 1752 702 1752 c 1,0,1
EndSplineSet
Validated: 33
EndChar
StartChar: i
Encoding: 105 105 46
Width: 452
GlyphClass: 2
Flags: W
VStem: 347.003 292<1098.7 1262.52>
LayerCount: 2
Fore
SplineSet
604 1646 m 1,0,1
 626 1683 626 1683 674 1728 c 1,2,3
 738 1733 738 1733 802 1681 c 1,4,5
 733 1354 733 1354 604 1646 c 1,0,1
347 1237 m 1,6,7
 404 1275 404 1275 498 1308 c 1,8,9
 573 1310 573 1310 639 1261 c 1,10,11
 639 1261 639 1261 639 1167 c 1,12,13
 597 1088 597 1088 557 969 c 1,14,15
 557 969 557 969 545 946 c 1,16,-1
 522 910 l 1,17,-1
 475 782 l 1,18,-1
 452 747 l 1,19,-1
 428 712 l 1,20,-1
 405 654 l 1,21,-1
 335 502 l 1,22,-1
 323 467 l 1,23,24
 261 372 261 372 195 210 c 1,25,26
 195 210 195 210 172 186 c 1,27,28
 153 121 153 121 102 35 c 1,29,30
 33 13 33 13 -38 46 c 1,31,32
 -51 95 -51 95 -50 163 c 1,33,34
 -50 163 -50 163 43 373 c 1,35,-1
 67 385 l 1,36,-1
 90 467 l 1,37,-1
 160 560 l 1,38,39
 168 629 168 629 218 712 c 1,40,41
 218 712 218 712 242 770 c 1,42,-1
 277 817 l 1,43,-1
 288 864 l 1,44,45
 331 926 331 926 370 1016 c 1,46,47
 370 1016 370 1016 370 1097 c 1,48,49
 335 1151 335 1151 347 1237 c 1,6,7
EndSplineSet
Validated: 33
EndChar
StartChar: j
Encoding: 106 106 47
Width: 734
GlyphClass: 2
Flags: W
HStem: 867 159<268 389.312>
VStem: -200 185<-2 93.1865>
LayerCount: 2
Fore
SplineSet
856 1531 m 1,1,2
 701 1555 701 1555 823 1694 c 1,3,0
 1028 1659 1028 1659 856 1531 c 1,1,2
573 1263 m 1,4,5
 573 1263 573 1263 660 1302 c 1,6,7
 739 1262 739 1262 725 1145 c 1,8,9
 652 1021 652 1021 616 842 c 1,10,11
 616 842 616 842 605 815 c 1,12,-1
 573 710 l 1,13,-1
 551 670 l 1,14,-1
 442 380 l 1,15,16
 425 315 425 315 377 235 c 1,17,18
 267 -260 267 -260 -135 -252 c 1,19,20
 -135 -252 -135 -252 -200 -133 c 1,21,22
 -200 1 -200 1 -135 143 c 1,23,24
 -9 171 -9 171 -15 -2 c 1,25,26
 32 7 32 7 72 37 c 1,27,28
 171 162 171 162 235 367 c 1,29,30
 288 461 288 461 322 604 c 1,31,32
 322 604 322 604 333 631 c 1,33,-1
 344 656 l 1,34,-1
 366 683 l 1,35,-1
 377 723 l 1,36,-1
 388 748 l 1,37,-1
 399 788 l 1,38,-1
 410 867 l 1,39,40
 214 753 214 753 214 973 c 1,41,42
 214 973 214 973 268 1026 c 1,43,44
 457 1059 457 1059 573 1263 c 1,4,5
EndSplineSet
Validated: 33
EndChar
StartChar: k
Encoding: 107 107 48
Width: 1021
GlyphClass: 2
Flags: W
LayerCount: 2
Fore
SplineSet
638.509765625 1734 m 1,0,1
 638.509765625 1734 638.509765625 1734 727.509765625 1768 c 1,2,-1
 817.509765625 1768 l 1,3,4
 858.509765625 1724 858.509765625 1724 862.509765625 1656 c 1,5,6
 810.509765625 1581 810.509765625 1581 772.509765625 1454 c 1,7,8
 772.509765625 1454 772.509765625 1454 750.509765625 1432 c 1,9,-1
 739.509765625 1398 l 1,10,11
 700.509765625 1326 700.509765625 1326 660.509765625 1208 c 1,12,13
 660.509765625 1208 660.509765625 1208 638.509765625 1197 c 1,14,-1
 626.509765625 1152 l 1,15,-1
 604.509765625 1107 l 1,16,-1
 593.509765625 1062 l 1,17,-1
 570.509765625 1029 l 1,18,-1
 559.509765625 973 l 1,19,-1
 548.509765625 928 l 1,20,21
 622.509765625 947 622.509765625 947 683.509765625 1006 c 1,22,23
 748.509765625 1016 748.509765625 1016 806.509765625 1074 c 1,24,25
 886.509765625 1099 886.509765625 1099 963.509765625 1174 c 1,26,27
 1044.50976562 1208 1044.50976562 1208 1120.50976562 1286 c 1,28,29
 1131.50976562 1289 1131.50976562 1289 1142.50976562 1309 c 1,30,31
 1367.50976562 1292 1367.50976562 1292 1198.50976562 1130 c 1,32,33
 1198.50976562 1130 1198.50976562 1130 1041.50976562 1029 c 1,34,-1
 1007.50976562 1006 l 1,35,-1
 985.509765625 995 l 1,36,-1
 974.509765625 973 l 1,37,-1
 940.509765625 962 l 1,38,-1
 907.509765625 939 l 1,39,40
 903.509765625 891 903.509765625 891 929.509765625 827 c 1,41,42
 929.509765625 827 929.509765625 827 929.509765625 704 c 1,43,-1
 929.509765625 670 l 1,44,-1
 851.509765625 491 l 1,45,-1
 839.509765625 457 l 1,46,-1
 817.509765625 446 l 1,47,-1
 817.509765625 413 l 1,48,-1
 795.509765625 379 l 1,49,50
 784.509765625 345 784.509765625 345 750.509765625 289 c 1,51,52
 750.509765625 289 750.509765625 289 750.509765625 245 c 1,53,54
 625.509765625 -56 625.509765625 -56 470.509765625 65 c 1,55,56
 470.509765625 65 470.509765625 65 470.509765625 144 c 1,57,-1
 492.509765625 200 l 1,58,59
 579.509765625 305 579.509765625 305 615.509765625 469 c 1,60,61
 655.509765625 523 655.509765625 523 671.509765625 603 c 1,62,63
 671.509765625 603 671.509765625 603 694.509765625 614 c 1,64,-1
 705.509765625 681 l 1,65,66
 630.509765625 683 630.509765625 683 559.509765625 637 c 1,67,68
 478.509765625 642 478.509765625 642 391.509765625 581 c 1,69,70
 378.509765625 518 378.509765625 518 324.509765625 435 c 1,71,72
 324.509765625 435 324.509765625 435 324.509765625 401 c 1,73,-1
 302.509765625 390 l 1,74,75
 287.509765625 320 287.509765625 320 234.509765625 233 c 1,76,77
 234.509765625 233 234.509765625 233 212.509765625 211 c 1,78,79
 195.509765625 179 195.509765625 179 178.509765625 121 c 1,80,81
 178.509765625 121 178.509765625 121 156.509765625 65 c 1,82,83
 77.509765625 21 77.509765625 21 10.509765625 88 c 1,84,85
 10.509765625 88 10.509765625 88 -0.490234375 155 c 1,86,87
 45.509765625 229 45.509765625 229 100.509765625 357 c 2,88,89
 100.509765625 357 100.509765625 357 133.509765625 435 c 1,90,-1
 167.509765625 469 l 1,91,-1
 178.509765625 491 l 1,92,-1
 201.509765625 536 l 1,93,-1
 268.509765625 726 l 1,94,-1
 290.509765625 737 l 1,95,-1
 290.509765625 771 l 1,96,-1
 313.509765625 805 l 1,97,-1
 324.509765625 849 l 1,98,-1
 358.509765625 894 l 1,99,100
 366.509765625 947 366.509765625 947 402.509765625 1018 c 1,101,102
 419.509765625 1087 419.509765625 1087 470.509765625 1152 c 1,103,104
 470.509765625 1152 470.509765625 1152 481.509765625 1208 c 1,105,-1
 503.509765625 1264 l 1,106,-1
 514.509765625 1320 l 1,107,-1
 548.509765625 1365 l 2,108,109
 600.509765625 1428 600.509765625 1428 626.509765625 1533 c 1,110,111
 626.509765625 1533 626.509765625 1533 649.509765625 1544 c 1,112,-1
 649.509765625 1600 l 1,113,114
 592.509765625 1654 592.509765625 1654 638.509765625 1734 c 1,0,1
EndSplineSet
Validated: 524321
EndChar
StartChar: l
Encoding: 108 108 49
Width: 505
GlyphClass: 2
Flags: W
LayerCount: 2
Fore
SplineSet
598.799804688 1770 m 1,0,1
 598.799804688 1770 598.799804688 1770 671.799804688 1794 c 1,2,3
 758.799804688 1793 758.799804688 1793 855.799804688 1733 c 1,4,5
 855.799804688 1693 855.799804688 1693 843.799804688 1635 c 1,6,7
 843.799804688 1635 843.799804688 1635 757.799804688 1427 c 1,8,-1
 696.799804688 1292 l 1,9,-1
 671.799804688 1268 l 1,10,-1
 586.799804688 1072 l 1,11,-1
 573.799804688 1035 l 1,12,-1
 549.799804688 998 l 1,13,-1
 524.799804688 962 l 1,14,-1
 475.799804688 851 l 2,15,16
 449.799804688 797 449.799804688 797 427.799804688 717 c 1,17,18
 427.799804688 717 427.799804688 717 390.799804688 680 c 1,19,-1
 378.799804688 643 l 1,20,-1
 304.799804688 521 l 1,21,22
 287.799804688 459 287.799804688 459 243.799804688 374 c 1,23,24
 243.799804688 374 243.799804688 374 218.799804688 313 c 1,25,-1
 145.799804688 166 l 1,26,-1
 133.799804688 129 l 1,27,-1
 120.799804688 93 l 1,28,-1
 96.7998046875 68 l 1,29,-1
 84.7998046875 31 l 1,30,31
 -3.2001953125 -2 -3.2001953125 -2 -99.2001953125 56 c 1,32,33
 -103.200195312 107 -103.200195312 107 -87.2001953125 178 c 1,34,35
 -87.2001953125 178 -87.2001953125 178 35.7998046875 399 c 1,36,-1
 84.7998046875 484 l 1,37,-1
 108.799804688 533 l 1,38,-1
 120.799804688 570 l 1,39,-1
 145.799804688 607 l 1,40,-1
 169.799804688 643 l 1,41,-1
 194.799804688 692 l 1,42,43
 228.799804688 746 228.799804688 746 243.799804688 815 c 1,44,45
 243.799804688 815 243.799804688 815 267.799804688 827 c 1,46,-1
 280.799804688 876 l 1,47,-1
 292.799804688 913 l 1,48,-1
 316.799804688 962 l 1,49,-1
 329.799804688 1011 l 1,50,51
 395.799804688 1093 395.799804688 1093 463.799804688 1231 c 1,52,53
 463.799804688 1231 463.799804688 1231 488.799804688 1268 c 1,54,-1
 500.799804688 1304 l 1,55,-1
 524.799804688 1341 l 1,56,57
 548.799804688 1419 548.799804688 1419 598.799804688 1512 c 1,58,59
 597.799804688 1588 597.799804688 1588 512.799804688 1623 c 1,60,61
 512.799804688 1623 512.799804688 1623 512.799804688 1696 c 1,62,63
 555.799804688 1722 555.799804688 1722 598.799804688 1770 c 1,0,1
EndSplineSet
Validated: 524321
EndChar
StartChar: m
Encoding: 109 109 50
Width: 1442
GlyphClass: 2
Flags: W
VStem: -18.8092 179<50.4336 175.648>
LayerCount: 2
Fore
SplineSet
373.190429688 1203 m 1,0,1
 446.190429688 1278 446.190429688 1278 563.190429688 1315 c 1,2,3
 696.190429688 1327 696.190429688 1327 709.190429688 1180 c 1,4,5
 1194.19042969 1444 1194.19042969 1444 1191.19042969 1147 c 1,6,7
 1191.19042969 1147 1191.19042969 1147 1393.19042969 1248 c 1,8,-1
 1404.19042969 1270 l 1,9,-1
 1482.19042969 1315 l 1,10,11
 1543.19042969 1319 1543.19042969 1319 1617.19042969 1293 c 1,12,13
 1651.19042969 1204 1651.19042969 1204 1639.19042969 1091 c 1,14,15
 1585.19042969 1018 1585.19042969 1018 1550.19042969 889 c 1,16,17
 1550.19042969 889 1550.19042969 889 1527.19042969 878 c 1,18,-1
 1527.19042969 844 l 1,19,-1
 1505.19042969 833 l 1,20,-1
 1505.19042969 799 l 1,21,-1
 1482.19042969 766 l 1,22,-1
 1426.19042969 642 l 1,23,-1
 1404.19042969 609 l 2,24,25
 1354.19042969 532 1354.19042969 532 1325.19042969 430 c 1,26,27
 1325.19042969 430 1325.19042969 430 1292.19042969 396 c 1,28,-1
 1269.19042969 340 l 1,29,-1
 1157.19042969 93 l 1,30,-1
 1135.19042969 60 l 1,31,-1
 1124.19042969 26 l 1,32,33
 1069.19042969 13 1069.19042969 13 1000.19042969 15 c 1,34,35
 940.190429688 83 940.190429688 83 956.190429688 194 c 1,36,37
 1066.19042969 308 1066.19042969 308 1135.19042969 497 c 1,38,39
 1200.19042969 582 1200.19042969 582 1236.19042969 710 c 1,40,41
 1345.19042969 840 1345.19042969 840 1393.19042969 1046 c 1,42,43
 1263.19042969 1002 1263.19042969 1002 1101.19042969 878 c 1,44,45
 1101.19042969 878 1101.19042969 878 1068.19042969 867 c 1,46,-1
 1045.19042969 844 l 1,47,-1
 1012.19042969 833 l 1,48,49
 970.190429688 760 970.190429688 760 922.190429688 631 c 1,50,51
 922.190429688 631 922.190429688 631 900.190429688 620 c 1,52,-1
 900.190429688 586 l 1,53,54
 888.190429688 583 888.190429688 583 877.190429688 564 c 0,55,56
 860.190429688 531 860.190429688 531 844.190429688 474 c 1,57,58
 826.190429688 435 826.190429688 435 788.190429688 385 c 1,59,60
 788.190429688 385 788.190429688 385 765.190429688 340 c 1,61,-1
 765.190429688 306 l 1,62,-1
 743.190429688 261 l 1,63,-1
 676.190429688 172 l 1,64,-1
 653.190429688 127 l 1,65,-1
 631.190429688 60 l 1,66,-1
 597.190429688 26 l 1,67,68
 455.190429688 -19 455.190429688 -19 440.190429688 127 c 1,69,70
 474.190429688 207 474.190429688 207 541.190429688 306 c 1,71,72
 541.190429688 306 541.190429688 306 552.190429688 340 c 1,73,-1
 563.190429688 362 l 1,74,-1
 586.190429688 385 l 1,75,-1
 597.190429688 407 l 1,76,-1
 620.190429688 441 l 1,77,78
 631.190429688 503 631.190429688 503 676.190429688 564 c 1,79,80
 676.190429688 564 676.190429688 564 698.190429688 598 c 2,81,82
 707.190429688 614 707.190429688 614 709.190429688 642 c 1,83,84
 709.190429688 642 709.190429688 642 743.190429688 699 c 1,85,-1
 810.190429688 844 l 1,86,87
 831.190429688 909 831.190429688 909 888.190429688 1001 c 1,88,89
 888.190429688 1001 888.190429688 1001 900.190429688 1057 c 1,90,91
 710.190429688 1005 710.190429688 1005 530.190429688 855 c 1,92,93
 514.190429688 810 514.190429688 810 485.190429688 755 c 2,94,95
 485.190429688 755 485.190429688 755 474.190429688 732 c 1,96,-1
 474.190429688 699 l 1,97,-1
 451.190429688 687 l 1,98,-1
 451.190429688 654 l 1,99,-1
 429.190429688 642 l 1,100,101
 421.190429688 595 421.190429688 595 395.190429688 553 c 1,102,103
 395.190429688 553 395.190429688 553 384.190429688 519 c 1,104,-1
 362.190429688 497 l 1,105,-1
 351.190429688 463 l 1,106,-1
 339.190429688 430 l 1,107,-1
 272.190429688 273 l 1,108,109
 198.190429688 192 198.190429688 192 160.190429688 71 c 1,110,111
 149.190429688 68 149.190429688 68 138.190429688 48 c 1,112,113
 60.1904296875 24 60.1904296875 24 -18.8095703125 71 c 1,114,115
 -23.8095703125 115 -23.8095703125 115 -7.8095703125 161 c 1,116,117
 -7.8095703125 161 -7.8095703125 161 -7.8095703125 194 c 1,118,119
 41.1904296875 250 41.1904296875 250 82.1904296875 351 c 1,120,121
 157.190429688 429 157.190429688 429 194.190429688 564 c 1,122,123
 275.190429688 661 275.190429688 661 306.190429688 811 c 1,124,125
 333.190429688 843 333.190429688 843 362.190429688 900 c 2,126,127
 362.190429688 900 362.190429688 900 440.190429688 1035 c 1,128,129
 430.190429688 1108 430.190429688 1108 373.190429688 1203 c 1,0,1
EndSplineSet
Validated: 524321
EndChar
StartChar: n
Encoding: 110 110 51
Width: 937
GlyphClass: 2
Flags: W
LayerCount: 2
Fore
SplineSet
856 1278 m 1,0,1
 925 1293 925 1293 1009 1333 c 1,2,3
 1063 1325 1063 1325 1130 1300 c 1,4,5
 1144 1249 1144 1249 1130 1169 c 1,6,7
 1130 1169 1130 1169 1097 1104 c 1,8,9
 1082 1048 1082 1048 1042 972 c 1,10,11
 1042 972 1042 972 1031 940 c 1,12,-1
 1009 918 l 1,13,-1
 998 874 l 1,14,-1
 944 732 l 1,15,-1
 933 699 l 1,16,-1
 900 656 l 1,17,-1
 878 623 l 1,18,-1
 867 568 l 1,19,-1
 835 525 l 1,20,-1
 813 459 l 1,21,22
 756 374 756 374 715 230 c 1,23,24
 715 230 715 230 693 208 c 1,25,-1
 682 164 l 1,26,-1
 649 109 l 1,27,-1
 638 44 l 1,28,29
 587 14 587 14 507 11 c 1,30,31
 462 53 462 53 452 131 c 1,32,33
 452 131 452 131 540 295 c 1,34,-1
 551 328 l 1,35,-1
 573 350 l 1,36,-1
 605 437 l 1,37,-1
 616 470 l 1,38,-1
 671 557 l 1,39,-1
 693 645 l 1,40,-1
 715 677 l 1,41,-1
 736 710 l 1,42,-1
 747 754 l 1,43,44
 788 813 788 813 824 918 c 1,45,46
 824 918 824 918 835 940 c 2,47,48
 866 994 866 994 889 1082 c 1,49,50
 751 1041 751 1041 616 918 c 1,51,52
 605 920 605 920 594 907 c 1,53,54
 594 907 594 907 551 896 c 1,55,-1
 518 874 l 1,56,-1
 485 863 l 1,57,58
 418 784 418 784 376 656 c 1,59,60
 329 588 329 588 289 470 c 1,61,62
 289 470 289 470 267 437 c 1,63,-1
 245 393 l 1,64,-1
 223 350 l 1,65,-1
 223 317 l 1,66,67
 172 249 172 249 125 120 c 1,68,69
 125 120 125 120 92 77 c 1,70,71
 -45 50 -45 50 -50 197 c 1,72,73
 -2 251 -2 251 37 350 c 2,74,75
 37 350 37 350 70 426 c 1,76,-1
 81 448 l 1,77,-1
 114 525 l 1,78,-1
 136 557 l 1,79,-1
 168 612 l 1,80,-1
 179 645 l 1,81,-1
 190 667 l 1,82,-1
 256 787 l 1,83,-1
 278 830 l 1,84,-1
 299 874 l 1,85,-1
 354 1005 l 1,86,-1
 365 1027 l 1,87,-1
 387 1071 l 1,88,89
 322 1160 322 1160 387 1267 c 1,90,91
 620 1335 620 1335 594 1136 c 1,92,93
 728 1162 728 1162 856 1278 c 1,0,1
EndSplineSet
Validated: 33
EndChar
StartChar: o
Encoding: 111 111 52
Width: 814
GlyphClass: 2
Flags: W
HStem: 1146 182<604.032 797.697>
VStem: -75.1153 148<252.262 485.797>
LayerCount: 2
Fore
SplineSet
571.868164062 1294 m 1,0,1
 607.868164062 1299 607.868164062 1299 662.868164062 1328 c 1,2,3
 1207.86816406 1351 1207.86816406 1351 855.868164062 670 c 1,4,5
 855.868164062 670 855.868164062 670 798.868164062 557 c 1,6,-1
 753.868164062 477 l 1,7,-1
 730.868164062 466 l 1,8,-1
 719.868164062 432 l 1,9,-1
 662.868164062 375 l 1,10,11
 644.868164062 344 644.868164062 344 605.868164062 307 c 1,12,13
 605.868164062 307 605.868164062 307 548.868164062 239 c 1,14,-1
 526.868164062 228 l 1,15,-1
 469.868164062 159 l 1,16,17
 429.868164062 144 429.868164062 144 378.868164062 114 c 1,18,19
 378.868164062 114 378.868164062 114 367.868164062 91 c 1,20,-1
 310.868164062 80 l 1,21,22
 40.8681640625 -104 40.8681640625 -104 -120.131835938 205 c 1,23,24
 -125.131835938 330 -125.131835938 330 -75.1318359375 466 c 1,25,26
 -75.1318359375 466 -75.1318359375 466 -75.1318359375 500 c 1,27,28
 -34.1318359375 562 -34.1318359375 562 15.8681640625 670 c 1,29,30
 15.8681640625 670 15.8681640625 670 60.8681640625 749 c 1,31,-1
 83.8681640625 772 l 1,32,-1
 106.868164062 817 l 1,33,-1
 117.868164062 852 l 1,34,35
 160.868164062 884 160.868164062 884 197.868164062 942 c 1,36,37
 197.868164062 942 197.868164062 942 219.868164062 988 c 1,38,-1
 367.868164062 1135 l 1,39,-1
 378.868164062 1169 l 1,40,41
 433.868164062 1199 433.868164062 1199 492.868164062 1260 c 1,42,43
 492.868164062 1260 492.868164062 1260 571.868164062 1294 c 1,0,1
809.868164062 1090 m 1,44,45
 763.868164062 1142 763.868164062 1142 673.868164062 1146 c 1,46,47
 293.868164062 934 293.868164062 934 72.8681640625 386 c 1,48,49
 65.8681640625 316 65.8681640625 316 94.8681640625 228 c 1,50,51
 94.8681640625 228 94.8681640625 228 197.868164062 216 c 1,52,53
 673.868164062 489 673.868164062 489 809.868164062 1090 c 1,44,45
EndSplineSet
Validated: 524321
EndChar
StartChar: p
Encoding: 112 112 53
Width: 1031
GlyphClass: 2
Flags: W
LayerCount: 2
Fore
SplineSet
533.499023438 1151 m 1,0,1
 384.499023438 1224 384.499023438 1224 512.499023438 1349 c 1,2,3
 750.499023438 1375 750.499023438 1375 784.499023438 1266 c 1,4,5
 1280.49902344 1405 1280.49902344 1405 1066.49902344 837 c 1,6,7
 1051.49902344 764 1051.49902344 764 1003.49902344 669 c 4,8,9
 986.499023438 641 986.499023438 641 972.499023438 585 c 1,10,11
 934.499023438 554 934.499023438 554 899.499023438 491 c 1,12,13
 861.499023438 457 861.499023438 457 826.499023438 387 c 1,14,15
 826.499023438 387 826.499023438 387 805.499023438 376 c 1,16,-1
 794.499023438 345 l 1,17,-1
 763.499023438 324 l 1,18,-1
 731.499023438 292 l 1,19,-1
 710.499023438 251 l 1,20,21
 661.499023438 239 661.499023438 239 595.499023438 198 c 1,22,23
 595.499023438 198 595.499023438 198 522.499023438 167 c 1,24,-1
 501.499023438 156 l 1,25,26
 449.499023438 143 449.499023438 143 386.499023438 146 c 1,27,28
 328.499023438 190 328.499023438 190 229.499023438 219 c 1,29,30
 198.499023438 139 198.499023438 139 124.499023438 31 c 1,31,32
 124.499023438 31 124.499023438 31 114.499023438 10 c 1,33,-1
 103.499023438 -22 l 1,34,-1
 83.4990234375 -32 l 1,35,-1
 41.4990234375 -116 l 1,36,-1
 20.4990234375 -126 l 1,37,38
 2.4990234375 -214 2.4990234375 -214 -63.5009765625 -294 c 1,39,40
 -63.5009765625 -294 -63.5009765625 -294 -94.5009765625 -325 c 1,41,42
 -149.500976562 -320 -149.500976562 -320 -199.500976562 -283 c 1,43,44
 -199.500976562 -283 -199.500976562 -283 -199.500976562 -178 c 1,45,46
 -140.500976562 -99 -140.500976562 -99 -84.5009765625 41 c 1,47,48
 -84.5009765625 41 -84.5009765625 41 -52.5009765625 62 c 1,49,-1
 -32.5009765625 125 l 1,50,-1
 -21.5009765625 146 l 1,51,-1
 -0.5009765625 188 l 1,52,-1
 30.4990234375 209 l 1,53,-1
 51.4990234375 240 l 1,54,-1
 83.4990234375 324 l 1,55,-1
 114.499023438 345 l 1,56,-1
 124.499023438 387 l 1,57,-1
 166.499023438 418 l 1,58,-1
 177.499023438 470 l 1,59,-1
 250.499023438 596 l 1,60,61
 273.499023438 656 273.499023438 656 323.499023438 732 c 0,62,63
 364.499023438 795 364.499023438 795 386.499023438 878 c 1,64,65
 386.499023438 878 386.499023438 878 428.499023438 931 c 1,66,67
 433.499023438 978 433.499023438 978 470.499023438 1025 c 1,68,69
 470.499023438 1025 470.499023438 1025 470.499023438 1067 c 1,70,-1
 522.499023438 1109 l 1,71,-1
 533.499023438 1151 l 1,0,1
954.499023438 775 m 1,72,73
 1073.49902344 1050 1073.49902344 1050 891.499023438 1100 c 1,74,75
 891.499023438 1100 891.499023438 1100 797.499023438 1047 c 1,76,77
 787.499023438 1048 787.499023438 1048 755.499023438 1016 c 1,78,79
 755.499023438 1016 755.499023438 1016 734.499023438 1005 c 1,80,-1
 651.499023438 817 l 1,81,-1
 630.499023438 807 l 1,82,-1
 630.499023438 775 l 1,83,-1
 609.499023438 765 l 1,84,-1
 609.499023438 733 l 1,85,-1
 588.499023438 712 l 1,86,-1
 578.499023438 681 l 1,87,-1
 515.499023438 566 l 1,88,-1
 504.499023438 524 l 1,89,90
 481.499023438 484 481.499023438 484 441.499023438 440 c 1,91,92
 441.499023438 440 441.499023438 440 431.499023438 367 c 1,93,-1
 483.499023438 325 l 1,94,95
 782.499023438 447 782.499023438 447 954.499023438 775 c 1,72,73
EndSplineSet
EndChar
StartChar: q
Encoding: 113 113 54
Width: 955
GlyphClass: 2
Flags: W
LayerCount: 2
Fore
SplineSet
678.725585938 1284 m 1,0,1
 744.725585938 1294 744.725585938 1294 809.725585938 1332 c 1,2,3
 1426.72558594 1253 1426.72558594 1253 941.725585938 458 c 0,4,5
 892.725585938 371 892.725585938 371 797.725585938 254 c 1,6,7
 797.725585938 254 797.725585938 254 773.725585938 230 c 1,8,-1
 761.725585938 194 l 1,9,-1
 690.725585938 146 l 1,10,11
 675.725585938 116 675.725585938 116 630.725585938 74 c 1,12,13
 630.725585938 74 630.725585938 74 606.725585938 38 c 1,14,-1
 570.725585938 26 l 1,15,16
 617.725585938 -201 617.725585938 -201 522.725585938 -297 c 1,17,18
 389.725585938 -277 389.725585938 -277 342.725585938 -105 c 1,19,20
 -104.274414062 -126 -104.274414062 -126 31.7255859375 362 c 1,21,22
 189.725585938 885 189.725585938 885 678.725585938 1284 c 1,0,1
941.725585938 1080 m 1,23,24
 898.725585938 1118 898.725585938 1118 833.725585938 1128 c 1,25,26
 294.725585938 819 294.725585938 819 210.725585938 134 c 1,27,28
 349.725585938 101 349.725585938 101 318.725585938 266 c 1,29,30
 339.725585938 271 339.725585938 271 354.725585938 290 c 1,31,32
 440.725585938 297 440.725585938 297 534.725585938 254 c 1,33,34
 878.725585938 569 878.725585938 569 941.725585938 1080 c 1,23,24
EndSplineSet
Validated: 524321
EndChar
StartChar: r
Encoding: 114 114 55
Width: 907
GlyphClass: 2
Flags: W
LayerCount: 2
Fore
SplineSet
842 1259 m 1,0,1
 896 1285 896 1285 932 1338 c 1,2,3
 1094 1260 1094 1260 1157 1068 c 1,4,5
 1118 1045 1118 1045 1078 1001 c 1,6,7
 1029 1007 1029 1007 977 1046 c 1,8,9
 977 1046 977 1046 932 1046 c 1,10,11
 873 1017 873 1017 820 956 c 1,12,13
 820 956 820 956 786 945 c 1,14,-1
 708 900 l 1,15,-1
 685 889 l 1,16,17
 634 848 634 848 550 821 c 1,18,19
 550 821 550 821 528 799 c 1,20,-1
 416 552 l 1,21,-1
 393 518 l 1,22,-1
 382 484 l 1,23,-1
 371 462 l 1,24,-1
 348 440 l 1,25,-1
 337 406 l 1,26,-1
 326 372 l 2,27,28
 322 360 322 360 303 350 c 1,29,30
 303 350 303 350 281 305 c 1,31,-1
 281 271 l 1,32,-1
 258 226 l 1,33,-1
 236 192 l 1,34,-1
 213 148 l 1,35,-1
 202 91 l 1,36,37
 193 75 193 75 191 46 c 1,38,39
 191 46 191 46 157 13 c 1,40,41
 60 1 60 1 0 91 c 1,42,43
 3 154 3 154 22 215 c 1,44,45
 92 295 92 295 135 428 c 1,46,47
 204 497 204 497 247 608 c 1,48,49
 247 608 247 608 270 642 c 1,50,-1
 292 687 l 1,51,52
 308 743 308 743 359 810 c 1,53,54
 359 810 359 810 359 855 c 1,55,-1
 427 979 l 1,56,-1
 461 1024 l 1,57,58
 476 1081 476 1081 461 1147 c 1,59,60
 461 1147 461 1147 472 1237 c 1,61,62
 483 1240 483 1240 494 1259 c 1,63,64
 732 1354 732 1354 708 1125 c 1,65,66
 797 1152 797 1152 842 1259 c 1,0,1
EndSplineSet
Validated: 33
EndChar
StartChar: s
Encoding: 115 115 56
Width: 798
GlyphClass: 2
Flags: W
VStem: 1.64714 211<255 400.825>
LayerCount: 2
Fore
SplineSet
727.6484375 1320 m 1,0,1
 738.6484375 1318 738.6484375 1318 750.6484375 1332 c 1,2,3
 750.6484375 1332 750.6484375 1332 809.6484375 1332 c 1,4,-1
 867.6484375 1332 l 1,5,-1
 879.6484375 1332 l 1,6,-1
 867.6484375 1332 l 1,7,-1
 879.6484375 1332 l 1,8,9
 1010.6484375 1245 1010.6484375 1245 996.6484375 1074 c 1,10,11
 964.6484375 1055 964.6484375 1055 902.6484375 1028 c 1,12,13
 902.6484375 1028 902.6484375 1028 844.6484375 1051 c 1,14,15
 736.6484375 1255 736.6484375 1255 575.6484375 887 c 1,16,17
 880.6484375 882 880.6484375 882 844.6484375 595 c 1,18,19
 662.6484375 242 662.6484375 242 270.6484375 21 c 1,20,21
 270.6484375 21 270.6484375 21 130.6484375 21 c 1,22,-1
 1.6484375 161 l 1,23,24
 -1.3515625 238 -1.3515625 238 1.6484375 349 c 1,25,26
 36.6484375 401 36.6484375 401 106.6484375 454 c 1,27,28
 240.6484375 460 240.6484375 460 212.6484375 255 c 1,29,30
 374.6484375 302 374.6484375 302 504.6484375 454 c 1,31,32
 601.6484375 535 601.6484375 535 633.6484375 676 c 1,33,34
 582.6484375 696 582.6484375 696 516.6484375 700 c 1,35,36
 456.6484375 693 456.6484375 693 387.6484375 712 c 2,37,38
 387.6484375 712 387.6484375 712 352.6484375 723 c 1,39,40
 320.6484375 808 320.6484375 808 352.6484375 922 c 1,41,42
 407.6484375 980 407.6484375 980 446.6484375 1074 c 1,43,44
 490.6484375 1105 490.6484375 1105 551.6484375 1168 c 1,45,46
 551.6484375 1168 551.6484375 1168 563.6484375 1203 c 1,47,48
 650.6484375 1238 650.6484375 1238 727.6484375 1320 c 1,0,1
EndSplineSet
Validated: 524325
EndChar
StartChar: t
Encoding: 116 116 57
Width: 772
GlyphClass: 2
Flags: W
LayerCount: 2
Fore
SplineSet
553 1701 m 1,0,-1
 664 1778 l 1,1,-1
 796 1778 l 1,2,-1
 862 1734 l 1,3,4
 861 1599 861 1599 785 1447 c 1,5,6
 785 1447 785 1447 763 1381 c 1,7,-1
 730 1303 l 1,8,9
 851 1269 851 1269 1028 1281 c 1,10,11
 1070 1247 1070 1247 1072 1182 c 1,12,13
 896 1047 896 1047 609 1072 c 1,14,15
 561 1008 561 1008 542 917 c 1,16,17
 518 892 518 892 498 851 c 2,18,19
 498 851 498 851 487 829 c 1,20,-1
 432 696 l 1,21,-1
 421 663 l 1,22,-1
 355 542 l 1,23,-1
 311 432 l 1,24,-1
 289 398 l 1,25,26
 284 366 284 366 256 332 c 2,27,28
 256 332 256 332 233 299 c 1,29,-1
 233 244 l 1,30,31
 367 262 367 262 498 354 c 1,32,33
 592 346 592 346 587 244 c 1,34,35
 463 117 463 117 267 56 c 1,36,37
 117 -24 117 -24 2 123 c 1,38,39
 -8 234 -8 234 46 365 c 1,40,41
 46 365 46 365 46 398 c 1,42,-1
 68 410 l 1,43,-1
 156 586 l 1,44,-1
 189 674 l 1,45,-1
 256 796 l 1,46,47
 286 840 286 840 322 917 c 0,48,49
 330 933 330 933 333 961 c 1,50,51
 344 965 344 965 355 983 c 1,52,53
 355 983 355 983 366 1028 c 1,54,-1
 388 1061 l 1,55,-1
 421 1116 l 1,56,-1
 443 1171 l 1,57,-1
 443 1215 l 1,58,-1
 520 1337 l 2,59,60
 557 1389 557 1389 598 1480 c 1,61,62
 654 1584 654 1584 553 1635 c 1,63,64
 553 1635 553 1635 553 1701 c 1,0,-1
EndSplineSet
Validated: 33
EndChar
StartChar: u
Encoding: 117 117 58
Width: 1024
GlyphClass: 2
Flags: W
VStem: 1024 189<1185.94 1288>
LayerCount: 2
Fore
SplineSet
1024 1240 m 1,0,1
 1057 1269 1057 1269 1090 1318 c 1,2,3
 1141 1322 1141 1322 1213 1307 c 1,4,5
 1227 1246 1227 1246 1224 1184 c 1,6,7
 1186 1134 1186 1134 1146 1051 c 1,8,9
 1146 1051 1146 1051 1090 962 c 1,10,-1
 1068 884 l 1,11,-1
 1046 862 l 1,12,-1
 1035 828 l 1,13,-1
 1024 795 l 1,14,-1
 924 594 l 1,15,-1
 901 550 l 1,16,17
 866 493 866 493 835 405 c 1,18,19
 835 405 835 405 812 394 c 1,20,21
 801 360 801 360 768 316 c 1,22,23
 768 316 768 316 757 272 c 1,24,25
 703 197 703 197 679 94 c 1,26,27
 679 94 679 94 657 38 c 1,28,29
 531 -2 531 -2 423 105 c 1,30,31
 264 20 264 20 67 71 c 1,32,33
 2 145 2 145 0 261 c 1,34,35
 35 323 35 323 67 428 c 1,36,37
 67 428 67 428 111 505 c 1,38,-1
 122 528 l 1,39,-1
 211 684 l 1,40,-1
 223 717 l 2,41,42
 240 753 240 753 278 806 c 1,43,44
 278 806 278 806 289 828 c 1,45,-1
 312 862 l 1,46,-1
 334 917 l 1,47,-1
 356 962 l 1,48,-1
 423 1084 l 1,49,50
 375 1167 375 1167 401 1273 c 1,51,52
 427 1283 427 1283 456 1307 c 1,53,54
 593 1342 593 1342 679 1229 c 1,55,56
 679 1229 679 1229 657 1095 c 1,57,58
 594 1027 594 1027 545 917 c 1,59,60
 545 917 545 917 523 906 c 1,61,-1
 501 862 l 1,62,-1
 478 828 l 1,63,-1
 389 628 l 1,64,65
 370 574 370 574 323 505 c 1,66,67
 323 505 323 505 312 472 c 1,68,-1
 289 439 l 1,69,-1
 278 405 l 1,70,-1
 256 372 l 1,71,-1
 256 327 l 1,72,-1
 234 305 l 1,73,74
 324 226 324 226 534 316 c 1,75,76
 611 402 611 402 668 550 c 1,77,78
 690 582 690 582 734 628 c 1,79,80
 734 628 734 628 757 661 c 1,81,-1
 757 695 l 1,82,83
 791 740 791 740 823 806 c 1,84,85
 823 806 823 806 846 828 c 1,86,87
 863 900 863 900 912 995 c 1,88,89
 912 995 912 995 924 1029 c 1,90,-1
 935 1062 l 1,91,-1
 957 1095 l 1,92,93
 1012 1152 1012 1152 1024 1240 c 1,0,1
EndSplineSet
Validated: 33
EndChar
StartChar: v
Encoding: 118 118 59
Width: 940
GlyphClass: 2
Flags: W
LayerCount: 2
Fore
SplineSet
918 1197 m 1,0,-1
 1043 1322 l 1,1,2
 1139 1336 1139 1336 1190 1243 c 1,3,4
 1175 1212 1175 1212 1156 1152 c 1,5,6
 1063 1090 1063 1090 986 971 c 1,7,8
 986 971 986 971 929 925 c 1,9,-1
 918 903 l 1,10,11
 802 829 802 829 714 687 c 1,12,13
 714 687 714 687 646 631 c 2,14,15
 597 586 597 586 544 506 c 1,16,17
 544 506 544 506 510 472 c 1,18,-1
 397 359 l 1,19,-1
 272 177 l 1,20,-1
 261 155 l 1,21,22
 249 151 249 151 238 132 c 1,23,24
 238 132 238 132 215 109 c 1,25,26
 212 96 212 96 193 87 c 1,27,28
 119 -54 119 -54 0 75 c 1,29,30
 0 75 0 75 23 257 c 1,31,-1
 79 381 l 1,32,-1
 113 529 l 1,33,-1
 125 574 l 1,34,-1
 147 597 l 1,35,36
 180 672 180 672 204 801 c 1,37,38
 204 801 204 801 215 835 c 1,39,-1
 249 948 l 1,40,-1
 272 982 l 1,41,42
 279 1069 279 1069 204 1129 c 1,43,44
 204 1129 204 1129 204 1220 c 1,45,46
 301 1312 301 1312 453 1311 c 1,47,48
 593 1196 593 1196 419 880 c 1,49,50
 419 880 419 880 351 642 c 1,51,52
 326 517 326 517 453 676 c 1,53,54
 515 730 515 730 589 835 c 1,55,56
 589 835 589 835 612 846 c 1,57,-1
 680 937 l 1,58,-1
 714 948 l 1,59,-1
 748 982 l 1,60,-1
 816 1073 l 1,61,-1
 861 1118 l 1,62,-1
 895 1152 l 1,63,-1
 918 1197 l 1,0,-1
EndSplineSet
Validated: 33
EndChar
StartChar: w
Encoding: 119 119 60
Width: 1209
GlyphClass: 2
Flags: W
LayerCount: 2
Fore
SplineSet
197 1254 m 1,0,-1
 371 1298 l 1,1,2
 440 1306 440 1306 502 1243 c 1,3,4
 505 1165 505 1165 481 1080 c 2,5,6
 481 1080 481 1080 448 948 c 1,7,-1
 448 916 l 1,8,-1
 426 905 l 1,9,-1
 404 817 l 1,10,-1
 404 774 l 1,11,-1
 382 752 l 1,12,-1
 360 675 l 1,13,-1
 360 643 l 1,14,15
 468 741 468 741 546 916 c 1,16,17
 760 961 760 961 721 566 c 1,18,19
 798 650 798 650 896 806 c 1,20,21
 907 810 907 810 917 828 c 1,22,23
 917 828 917 828 983 905 c 1,24,-1
 1059 1003 l 1,25,-1
 1081 1025 l 1,26,-1
 1114 1058 l 1,27,28
 1150 1100 1150 1100 1180 1167 c 1,29,30
 1180 1167 1180 1167 1223 1222 c 1,31,-1
 1256 1265 l 1,32,33
 1322 1284 1322 1284 1409 1254 c 1,34,35
 1411 1175 1411 1175 1365 1090 c 1,36,37
 1291 1033 1291 1033 1234 927 c 1,38,39
 1234 927 1234 927 1212 916 c 1,40,-1
 1191 883 l 1,41,42
 1180 879 1180 879 1169 861 c 1,43,44
 1130 825 1130 825 1092 752 c 1,45,46
 1039 703 1039 703 994 621 c 1,47,48
 994 621 994 621 972 588 c 1,49,50
 916 529 916 529 863 435 c 1,51,52
 863 435 863 435 819 391 c 1,53,-1
 808 348 l 1,54,-1
 775 315 l 1,55,-1
 765 271 l 1,56,-1
 732 238 l 1,57,-1
 666 118 l 1,58,-1
 644 107 l 1,59,-1
 644 75 l 1,60,61
 601 44 601 44 535 20 c 1,62,63
 535 20 535 20 459 96 c 1,64,65
 458 187 458 187 502 282 c 1,66,67
 502 282 502 282 502 348 c 1,68,-1
 513 413 l 1,69,-1
 502 501 l 1,70,71
 420 443 420 443 360 326 c 1,72,73
 313 291 313 291 273 217 c 1,74,75
 236 184 236 184 186 118 c 1,76,77
 186 118 186 118 175 96 c 1,78,-1
 164 64 l 1,79,80
 84 28 84 28 0 86 c 1,81,82
 0 86 0 86 0 206 c 1,83,84
 49 291 49 291 87 435 c 1,85,86
 87 435 87 435 109 468 c 1,87,-1
 120 544 l 1,88,-1
 131 577 l 1,89,-1
 153 588 l 1,90,91
 154 637 154 637 175 675 c 1,92,93
 175 675 175 675 175 708 c 1,94,-1
 197 730 l 1,95,96
 203 811 203 811 240 894 c 1,97,98
 240 894 240 894 262 981 c 1,99,-1
 284 1036 l 1,100,101
 258 1095 258 1095 175 1134 c 1,102,103
 176 1184 176 1184 197 1222 c 1,104,105
 197 1222 197 1222 197 1254 c 1,0,-1
EndSplineSet
Validated: 33
EndChar
StartChar: x
Encoding: 120 120 61
Width: 1019
GlyphClass: 2
Flags: W
HStem: 1115 168<1145.52 1209.32>
VStem: 604 212<276.516 567> 626 235<101.955 198> 626 213<354 564.727>
LayerCount: 2
Fore
SplineSet
559 1104 m 1,0,1
 359 1146 359 1146 481 1316 c 1,2,3
 817 1368 817 1368 794 1059 c 1,4,5
 876 1095 876 1095 939 1182 c 1,6,7
 1019 1209 1019 1209 1096 1283 c 1,8,9
 1157 1287 1157 1287 1219 1249 c 1,10,11
 1220 1181 1220 1181 1197 1115 c 1,12,13
 1197 1115 1197 1115 1118 1093 c 1,14,15
 1060 1048 1060 1048 984 970 c 1,16,17
 984 970 984 970 951 958 c 1,18,19
 922 931 922 931 883 880 c 1,20,21
 883 880 883 880 850 869 c 1,22,-1
 828 835 l 1,23,-1
 794 813 l 1,24,25
 782 713 782 713 816 600 c 1,26,27
 805 489 805 489 839 354 c 1,28,29
 839 354 839 354 839 309 c 1,30,-1
 839 276 l 1,31,-1
 861 242 l 1,32,-1
 861 198 l 1,33,34
 833 111 833 111 772 41 c 1,35,36
 688 42 688 42 626 108 c 1,37,38
 626 108 626 108 626 410 c 1,39,-1
 626 444 l 1,40,41
 604 495 604 495 604 567 c 1,42,43
 604 567 604 567 548 544 c 1,44,45
 481 492 481 492 425 399 c 1,46,47
 425 399 425 399 380 343 c 1,48,49
 272 260 272 260 212 108 c 1,50,51
 184 81 184 81 145 30 c 1,52,53
 69 26 69 26 0 75 c 1,54,55
 1 141 1 141 22 231 c 1,56,57
 94 300 94 300 168 421 c 1,58,59
 168 421 168 421 246 500 c 1,60,-1
 257 522 l 1,61,-1
 291 556 l 1,62,-1
 313 589 l 1,63,-1
 324 612 l 1,64,-1
 492 746 l 1,65,-1
 514 768 l 1,66,67
 531 805 531 805 570 858 c 1,68,69
 570 858 570 858 582 880 c 1,70,-1
 559 1104 l 1,0,1
EndSplineSet
Validated: 33
EndChar
StartChar: y
Encoding: 121 121 62
Width: 1077
GlyphClass: 2
Flags: W
LayerCount: 2
Fore
SplineSet
1109.47363281 1221 m 1,0,-1
 1161.47363281 1268 l 1,1,-1
 1238.47363281 1253 l 1,2,3
 1282.47363281 1173 1282.47363281 1173 1277.47363281 1045 c 1,4,5
 1277.47363281 1045 1277.47363281 1045 1264.47363281 1045 c 1,6,-1
 1277.47363281 1045 l 1,7,-1
 1264.47363281 1045 l 1,8,-1
 1135.47363281 806 l 1,9,-1
 1122.47363281 758 l 1,10,-1
 1109.47363281 726 l 1,11,-1
 1045.47363281 630 l 1,12,-1
 1045.47363281 583 l 1,13,-1
 1019.47363281 536 l 1,14,-1
 1006.47363281 487 l 1,15,-1
 980.473632812 440 l 1,16,-1
 967.473632812 391 l 1,17,18
 910.473632812 319 910.473632812 319 864.473632812 201 c 2,19,20
 864.473632812 201 864.473632812 201 838.473632812 137 c 1,21,22
 799.473632812 71 799.473632812 71 761.473632812 -22 c 1,23,24
 278.473632812 -826 278.473632812 -826 0.4736328125 -325 c 1,25,26
 -5.5263671875 -210 -5.5263671875 -210 64.4736328125 -86 c 1,27,28
 64.4736328125 -86 64.4736328125 -86 180.473632812 -70 c 1,29,30
 300.473632812 -369 300.473632812 -369 567.473632812 169 c 1,31,32
 567.473632812 169 567.473632812 169 567.473632812 248 c 1,33,34
 353.473632812 491 353.473632812 491 464.473632812 934 c 1,35,36
 242.473632812 960 242.473632812 960 296.473632812 1189 c 1,37,38
 374.473632812 1216 374.473632812 1216 477.473632812 1205 c 1,39,40
 535.473632812 1235 535.473632812 1235 632.473632812 1253 c 1,41,42
 632.473632812 1253 632.473632812 1253 709.473632812 1189 c 1,43,44
 729.473632812 958 729.473632812 958 658.473632812 647 c 1,45,46
 658.473632812 647 658.473632812 647 658.473632812 599 c 1,47,48
 670.473632812 557 670.473632812 557 709.473632812 487 c 1,49,50
 805.473632812 579 805.473632812 579 851.473632812 743 c 1,51,52
 919.473632812 829 919.473632812 829 967.473632812 982 c 1,53,54
 1025.47363281 1056 1025.47363281 1056 1083.47363281 1173 c 1,55,56
 1083.47363281 1173 1083.47363281 1173 1109.47363281 1221 c 1,0,-1
EndSplineSet
Validated: 524325
EndChar
StartChar: z
Encoding: 122 122 63
Width: 1031
GlyphClass: 2
Flags: W
LayerCount: 2
Fore
SplineSet
767 1293 m 1,0,1
 899 1053 899 1053 1098 1315 c 1,2,3
 1183 1339 1183 1339 1231 1260 c 1,4,5
 1219 1198 1219 1198 1176 1128 c 1,6,7
 1176 1128 1176 1128 900 896 c 1,8,-1
 867 862 l 1,9,-1
 811 807 l 1,10,-1
 789 785 l 1,11,-1
 767 752 l 1,12,-1
 723 719 l 2,13,14
 684 692 684 692 646 642 c 1,15,16
 587 600 587 600 513 520 c 1,17,18
 513 520 513 520 491 476 c 1,19,20
 436 443 436 443 381 377 c 1,21,22
 405 330 405 330 425 255 c 1,23,24
 478 225 478 225 535 266 c 1,25,26
 535 266 535 266 635 255 c 1,27,28
 693 113 693 113 535 56 c 1,29,30
 364 -20 364 -20 215 112 c 1,31,32
 108 62 108 62 -17 89 c 1,33,34
 -43 138 -43 138 -50 211 c 1,35,36
 -50 211 -50 211 127 399 c 1,37,38
 175 425 175 425 215 487 c 1,39,40
 234 496 234 496 248 520 c 1,41,42
 311 561 311 561 381 642 c 1,43,44
 381 642 381 642 414 653 c 1,45,46
 443 705 443 705 502 741 c 1,47,48
 502 741 502 741 602 851 c 1,49,50
 663 904 663 904 734 995 c 1,51,52
 734 995 734 995 701 1050 c 1,53,54
 636 1047 636 1047 591 984 c 1,55,56
 367 1024 367 1024 690 1304 c 1,57,58
 690 1304 690 1304 767 1293 c 1,0,1
EndSplineSet
Validated: 33
EndChar
StartChar: asciitilde
Encoding: 126 126 64
Width: 842
GlyphClass: 2
Flags: W
HStem: 467 426<769 952> 756 178<277.08 419.449>
VStem: 851.5 190.5<671.492 862.25>
LayerCount: 2
Fore
SplineSet
367 934 m 0,0,1
 454 934 454 934 525 863 c 1,2,-1
 635 730 l 2,3,4
 701 656 701 656 772 650 c 0,5,6
 813 647 813 647 851.5 770 c 128,-1,7
 890 893 890 893 952 893 c 0,8,9
 990 893 990 893 1016 868.5 c 128,-1,10
 1042 844 1042 844 1042 806 c 0,11,12
 1043 674 1043 674 962 572 c 0,13,14
 880 467 880 467 769 467 c 256,15,16
 658 467 658 467 566 542 c 0,17,18
 514 585 514 585 443 681 c 0,19,20
 388 756 388 756 367 756 c 0,21,22
 280 756 280 756 170 567 c 0,23,24
 141 516 141 516 93 516 c 0,25,26
 57 516 57 516 28.5 541.5 c 128,-1,27
 0 567 0 567 0 603 c 0,28,29
 0 622 0 622 10 645 c 0,30,31
 64 762 64 762 151 841 c 0,32,33
 254 934 254 934 367 934 c 0,0,1
EndSplineSet
Validated: 33
EndChar
StartChar: dieresis
Encoding: 168 168 65
Width: 554
GlyphClass: 2
Flags: W
HStem: 1184 188<18.7683 223.051 522.314 730.399>
VStem: 0 242<1209.75 1348.93> 502 252<1213.89 1356.74>
LayerCount: 2
Fore
SplineSet
111 1372 m 0,0,1
 242 1372 242 1372 242 1267 c 0,2,3
 242 1237 242 1237 198 1209 c 0,4,5
 158 1184 158 1184 123 1184 c 0,6,7
 0 1184 0 1184 0 1287 c 0,8,9
 0 1316 0 1316 37.5 1344 c 128,-1,10
 75 1372 75 1372 111 1372 c 0,0,1
650 1380 m 0,11,12
 684 1380 684 1380 719 1348.5 c 128,-1,13
 754 1317 754 1317 754 1287 c 0,14,15
 754 1195 754 1195 611 1195 c 0,16,17
 570 1195 570 1195 538 1216 c 0,18,19
 502 1240 502 1240 502 1279 c 0,20,21
 502 1348 502 1348 547 1368 c 0,22,23
 572 1380 572 1380 650 1380 c 0,11,12
EndSplineSet
Validated: 1
EndChar
StartChar: acute
Encoding: 180 180 66
Width: 252
GlyphClass: 2
Flags: W
HStem: 1187 478
VStem: 0 452
LayerCount: 2
Fore
SplineSet
91 1187 m 0,0,1
 55 1187 55 1187 27.5 1215 c 128,-1,2
 0 1243 0 1243 0 1279 c 0,3,4
 0 1313 0 1313 31 1344 c 0,5,6
 74 1386 74 1386 162 1503 c 0,7,8
 228 1589 228 1589 309 1646 c 0,9,10
 336 1665 336 1665 362 1665 c 0,11,12
 398 1665 398 1665 425 1636.5 c 128,-1,13
 452 1608 452 1608 452 1572 c 0,14,15
 452 1532 452 1532 414 1502 c 0,16,17
 344 1446 344 1446 279 1357 c 0,18,19
 211 1263 211 1263 150 1212 c 0,20,21
 122 1187 122 1187 91 1187 c 0,0,1
EndSplineSet
Validated: 1
EndChar
StartChar: cedilla
Encoding: 184 184 67
Width: 299
GlyphClass: 2
Flags: W
HStem: -445 152<99.7883 325.641> -34 149<88.1416 253.366>
VStem: 343 156<-274.314 -112.748>
LayerCount: 2
Fore
SplineSet
499 -196 m 4,0,1
 499 -320 499 -320 438.5 -382.5 c 132,-1,2
 378 -445 378 -445 257 -445 c 4,3,4
 172 -445 172 -445 96 -413 c 4,5,6
 0 -371 0 -371 0 -298 c 4,7,8
 0 -244 0 -244 68 -244 c 4,9,10
 104 -244 104 -244 149.5 -268.5 c 132,-1,11
 195 -293 195 -293 246 -293 c 4,12,13
 295 -292 295 -292 319 -269 c 132,-1,14
 343 -246 343 -246 343 -201 c 4,15,16
 343 -141 343 -141 273 -91 c 4,17,18
 217 -51 217 -51 148 -34 c 4,19,20
 83 -19 83 -19 83 39 c 4,21,22
 83 115 83 115 155 115 c 4,23,24
 275 115 275 115 385 20 c 4,25,26
 499 -78 499 -78 499 -196 c 4,0,1
EndSplineSet
Validated: 1
EndChar
StartChar: multiply
Encoding: 215 215 88
Width: 584
GlyphClass: 2
Flags: W
LayerCount: 2
Fore
SplineSet
444.557617188 638 m 5,0,1
 490.749023438 587 490.749023438 587 525.102539062 514 c 4,2,3
 571.275390625 416 571.275390625 416 546.678710938 361 c 4,4,5
 528.791015625 321 528.791015625 321 492.926757812 290 c 4,6,7
 452.721679688 256 452.721679688 256 414.721679688 256 c 4,8,9
 341.721679688 256 341.721679688 256 318.75390625 388 c 4,10,11
 310.666992188 437 310.666992188 437 264.344726562 481 c 5,12,13
 152.54296875 392 152.54296875 392 33.1630859375 295 c 5,14,15
 -23.5888671875 224 -23.5888671875 224 -93.5888671875 224 c 4,16,17
 -135.588867188 224 -135.588867188 224 -152.73828125 250.5 c 132,-1,18
 -169.88671875 277 -169.88671875 277 -151.55078125 318 c 4,19,20
 -125.612304688 376 -125.612304688 376 -48.673828125 434 c 4,21,22
 74.9169921875 527 74.9169921875 527 78.705078125 531 c 4,23,24
 106.780273438 558 106.780273438 558 164.9296875 612 c 5,25,26
 125.681640625 683 125.681640625 683 106.098632812 713 c 4,27,28
 70.6953125 768 70.6953125 768 32.794921875 804 c 4,29,30
 -0.89453125 836 -0.89453125 836 21.0185546875 885 c 4,31,32
 39.3544921875 926 39.3544921875 926 82.9423828125 957.5 c 132,-1,33
 126.529296875 989 126.529296875 989 166.529296875 989 c 4,34,35
 234.529296875 989 234.529296875 989 355.930664062 773 c 5,36,37
 475.522460938 866 475.522460938 866 592.485351562 933 c 4,38,39
 619.193359375 948 619.193359375 948 669.951171875 981 c 5,40,41
 720.392578125 1020 720.392578125 1020 762.392578125 1020 c 4,42,43
 802.392578125 1020 802.392578125 1020 820.252929688 989.5 c 132,-1,44
 838.11328125 959 838.11328125 959 820.224609375 919 c 4,45,46
 798.310546875 870 798.310546875 870 702.924804688 811 c 4,47,48
 629.248046875 767 629.248046875 767 555.5703125 723 c 5,49,50
 504.470703125 687 504.470703125 687 444.557617188 638 c 5,0,1
EndSplineSet
Validated: 524321
EndChar
StartChar: ccedilla
Encoding: 231 231 174
Width: 846
Flags: W
LayerCount: 2
Fore
SplineSet
449.00390625 -196 m 0,0,1
 449.00390625 -320 449.00390625 -320 388.50390625 -382.5 c 128,-1,2
 328.00390625 -445 328.00390625 -445 207.00390625 -445 c 0,3,4
 122.00390625 -445 122.00390625 -445 46.00390625 -413 c 0,5,6
 -49.99609375 -371 -49.99609375 -371 -49.99609375 -298 c 0,7,8
 -49.99609375 -244 -49.99609375 -244 18.00390625 -244 c 0,9,10
 54.00390625 -244 54.00390625 -244 99.50390625 -268.5 c 128,-1,11
 145.00390625 -293 145.00390625 -293 196.00390625 -293 c 0,12,13
 245.00390625 -292 245.00390625 -292 269.00390625 -269 c 128,-1,14
 293.00390625 -246 293.00390625 -246 293.00390625 -201 c 0,15,16
 293.00390625 -141 293.00390625 -141 223.00390625 -91 c 0,17,18
 167.00390625 -51 167.00390625 -51 98.00390625 -34 c 0,19,20
 33.00390625 -19 33.00390625 -19 33.00390625 39 c 0,21,22
 33.00390625 115 33.00390625 115 105.00390625 115 c 0,23,24
 225.00390625 115 225.00390625 115 335.00390625 20 c 0,25,26
 449.00390625 -78 449.00390625 -78 449.00390625 -196 c 0,0,1
625.00390625 1298 m 1,27,28
 673.00390625 1293 673.00390625 1293 732.00390625 1322 c 1,29,30
 782.00390625 1324 782.00390625 1324 827.00390625 1310 c 1,31,32
 827.00390625 1310 827.00390625 1310 862.00390625 1310 c 1,33,34
 1019.00390625 1144 1019.00390625 1144 886.00390625 919 c 1,35,36
 744.00390625 945 744.00390625 945 755.00390625 1097 c 1,37,38
 637.00390625 1058 637.00390625 1058 542.00390625 955 c 1,39,40
 385.00390625 823 385.00390625 823 294.00390625 599 c 1,41,42
 294.00390625 599 294.00390625 599 270.00390625 588 c 1,43,44
 66.00390625 172 66.00390625 172 353.00390625 256 c 1,45,46
 353.00390625 256 353.00390625 256 542.00390625 386 c 1,47,-1
 554.00390625 410 l 1,48,49
 668.00390625 428 668.00390625 428 673.00390625 315 c 1,50,51
 313.00390625 -164 313.00390625 -164 -2.99609375 137 c 1,52,53
 -2.99609375 137 -2.99609375 137 -49.99609375 220 c 1,54,55
 66.00390625 846 66.00390625 846 625.00390625 1298 c 1,27,28
EndSplineSet
Validated: 524325
EndChar
StartChar: dotlessi
Encoding: 305 305 119
Width: 489
GlyphClass: 2
Flags: W
VStem: 397.072 292<1098.7 1262.52>
LayerCount: 2
Fore
SplineSet
397.071289062 1237 m 1,0,1
 454.071289062 1275 454.071289062 1275 548.071289062 1308 c 1,2,3
 623.071289062 1310 623.071289062 1310 689.071289062 1261 c 1,4,5
 689.071289062 1261 689.071289062 1261 689.071289062 1167 c 1,6,7
 647.071289062 1088 647.071289062 1088 607.071289062 969 c 1,8,9
 607.071289062 969 607.071289062 969 595.071289062 946 c 1,10,-1
 572.071289062 910 l 1,11,-1
 525.071289062 782 l 1,12,-1
 502.071289062 747 l 1,13,-1
 478.071289062 712 l 1,14,-1
 455.071289062 654 l 1,15,-1
 385.071289062 502 l 1,16,-1
 373.071289062 467 l 1,17,18
 311.071289062 372 311.071289062 372 245.071289062 210 c 1,19,20
 245.071289062 210 245.071289062 210 222.071289062 186 c 1,21,22
 203.071289062 121 203.071289062 121 152.071289062 35 c 1,23,24
 83.0712890625 13 83.0712890625 13 12.0712890625 46 c 1,25,26
 -0.9287109375 95 -0.9287109375 95 0.0712890625 163 c 1,27,28
 0.0712890625 163 0.0712890625 163 93.0712890625 373 c 1,29,-1
 117.071289062 385 l 1,30,-1
 140.071289062 467 l 1,31,-1
 210.071289062 560 l 1,32,33
 218.071289062 629 218.071289062 629 268.071289062 712 c 1,34,35
 268.071289062 712 268.071289062 712 292.071289062 770 c 1,36,-1
 327.071289062 817 l 1,37,-1
 338.071289062 864 l 1,38,39
 381.071289062 926 381.071289062 926 420.071289062 1016 c 1,40,41
 420.071289062 1016 420.071289062 1016 420.071289062 1097 c 1,42,43
 385.071289062 1151 385.071289062 1151 397.071289062 1237 c 1,0,1
EndSplineSet
Validated: 524321
EndChar
StartChar: florin
Encoding: 402 402 129
Width: 1050
GlyphClass: 2
Flags: W
HStem: -361 187<26.8157 190.289> 630 187<281.143 482.334> 663 193<730 1046.13> 1371 190<959.52 1226.65>
LayerCount: 2
Fore
SplineSet
91 -361 m 0,0,1
 52 -361 52 -361 26 -332.5 c 128,-1,2
 0 -304 0 -304 0 -264 c 0,3,4
 0 -194 0 -194 74 -174 c 0,5,6
 235 -132 235 -132 308 -34 c 0,7,8
 366 45 366 45 405 224 c 2,9,-1
 486 639 l 1,10,11
 368 630 368 630 340 630 c 0,12,13
 258 630 258 630 258 702 c 0,14,15
 258 794 258 794 362 817 c 1,16,-1
 538 830 l 1,17,18
 631 1176 631 1176 714 1313 c 0,19,20
 863 1561 863 1561 1128 1561 c 0,21,22
 1250 1561 1250 1561 1250 1491 c 0,23,24
 1250 1371 1250 1371 1100 1371 c 0,25,26
 939 1371 939 1371 840 1179 c 0,27,28
 785 1074 785 1074 730 845 c 1,29,30
 892 856 892 856 935 856 c 0,31,32
 1071 856 1071 856 1071 782 c 0,33,34
 1071 663 1071 663 908 663 c 0,35,36
 893 663 893 663 864 664 c 128,-1,37
 835 665 835 665 822 665 c 2,38,-1
 681 655 l 1,39,-1
 609 287 l 2,40,41
 568 61 568 61 510 -72 c 0,42,43
 464 -181 464 -181 347 -260 c 0,44,45
 244 -330 244 -330 115 -358 c 0,46,47
 103 -361 103 -361 91 -361 c 0,0,1
EndSplineSet
Validated: 1
EndChar
StartChar: circumflex
Encoding: 710 710 130
Width: 622
GlyphClass: 2
Flags: W
HStem: 1166 524
LayerCount: 2
Fore
SplineSet
396 1690 m 0,0,1
 451 1690 451 1690 528 1623 c 0,2,3
 552 1602 552 1602 637 1511 c 2,4,-1
 796 1341 l 2,5,6
 822 1311 822 1311 822 1280 c 0,7,8
 822 1244 822 1244 794.5 1216.5 c 128,-1,9
 767 1189 767 1189 730 1189 c 0,10,11
 697 1189 697 1189 667 1218 c 0,12,13
 587 1308 587 1308 417 1478 c 1,14,15
 163 1166 163 1166 91 1166 c 0,16,17
 55 1166 55 1166 27.5 1194 c 128,-1,18
 0 1222 0 1222 0 1258 c 0,19,20
 0 1293 0 1293 30 1323 c 0,21,22
 86 1377 86 1377 335 1659 c 0,23,24
 362 1690 362 1690 396 1690 c 0,0,1
EndSplineSet
Validated: 1
EndChar
StartChar: caron
Encoding: 711 711 131
Width: 470
GlyphClass: 2
Flags: W
HStem: 1176 451
VStem: 0 670<1512 1529>
LayerCount: 2
Fore
SplineSet
325 1359 m 1,0,-1
 545 1556 l 2,1,2
 569 1576 569 1576 594 1576 c 0,3,4
 624 1576 624 1576 647 1552.5 c 128,-1,5
 670 1529 670 1529 670 1499 c 256,6,7
 670 1469 670 1469 644 1444 c 0,8,9
 359 1176 359 1176 316 1176 c 0,10,11
 285 1176 285 1176 250 1213 c 1,12,-1
 200 1275 l 1,13,-1
 83 1409 l 1,14,15
 0 1512 0 1512 0 1553 c 0,16,17
 0 1583 0 1583 24 1605 c 128,-1,18
 48 1627 48 1627 79 1627 c 0,19,20
 118 1627 118 1627 142 1587 c 0,21,22
 175 1532 175 1532 325 1359 c 1,0,-1
EndSplineSet
Validated: 1
EndChar
StartChar: macron
Encoding: 713 713 132
Width: 493
GlyphClass: 2
Flags: W
HStem: 1186 149<6.3457 686.002>
LayerCount: 2
Fore
SplineSet
135 1344 m 0,0,1
 174 1344 174 1344 253.5 1339.5 c 128,-1,2
 333 1335 333 1335 372 1335 c 0,3,4
 413 1335 413 1335 494 1337 c 128,-1,5
 575 1339 575 1339 615 1339 c 0,6,7
 693 1339 693 1339 693 1264 c 0,8,9
 693 1204 693 1204 628 1191 c 1,10,-1
 516 1186 l 1,11,-1
 361 1186 l 2,12,13
 313 1186 313 1186 217 1189 c 128,-1,14
 121 1192 121 1192 72 1192 c 0,15,16
 0 1192 0 1192 0 1268 c 0,17,18
 0 1319 0 1319 46 1335 c 0,19,20
 70 1344 70 1344 135 1344 c 0,0,1
EndSplineSet
Validated: 1
EndChar
StartChar: breve
Encoding: 728 728 133
Width: 644
GlyphClass: 2
Flags: W
HStem: 1179 150<225.849 596.751>
VStem: 0 149<1402.68 1584.88> 695 149<1465 1530.34>
LayerCount: 2
Fore
SplineSet
359 1329 m 0,0,1
 652 1329 652 1329 695 1489 c 0,2,3
 712 1552 712 1552 767 1552 c 0,4,5
 799 1552 799 1552 822.5 1531 c 128,-1,6
 846 1510 846 1510 844 1479 c 2,7,-1
 842 1465 l 1,8,9
 830 1313 830 1313 666 1237 c 0,10,11
 538 1179 538 1179 359 1179 c 0,12,13
 217 1179 217 1179 110 1275 c 0,14,15
 0 1373 0 1373 0 1514 c 0,16,17
 0 1589 0 1589 74 1589 c 0,18,19
 149 1589 149 1589 149 1514 c 0,20,21
 149 1436 149 1436 216 1381 c 0,22,23
 279 1329 279 1329 359 1329 c 0,0,1
EndSplineSet
Validated: 1
EndChar
StartChar: dotaccent
Encoding: 729 729 134
Width: 44
GlyphClass: 2
Flags: W
HStem: 1183 221<57.0156 185.534>
VStem: 0 244<1239.85 1346.58>
LayerCount: 2
Fore
SplineSet
244 1278 m 0,0,1
 244 1242 244 1242 210 1212.5 c 128,-1,2
 176 1183 176 1183 139 1183 c 0,3,4
 107 1183 107 1183 53.5 1231 c 128,-1,5
 0 1279 0 1279 0 1310 c 0,6,7
 0 1347 0 1347 36 1376 c 0,8,9
 69 1404 69 1404 106 1404 c 0,10,11
 137 1404 137 1404 190.5 1355.5 c 128,-1,12
 244 1307 244 1307 244 1278 c 0,0,1
EndSplineSet
Validated: 1
EndChar
StartChar: ring
Encoding: 730 730 135
Width: 474
GlyphClass: 2
Flags: W
HStem: 1186 147<195.292 484.726> 1609 149<197.771 489.997>
VStem: 0 150<1380.37 1560.49> 524 150<1372.95 1572.23>
LayerCount: 2
Fore
SplineSet
331 1333 m 0,0,1
 417 1336 417 1336 457 1357 c 0,2,3
 524 1393 524 1393 524 1489 c 0,4,5
 524 1547 524 1547 470 1580 c 0,6,7
 425 1609 425 1609 363 1609 c 0,8,9
 146 1609 146 1609 150 1449 c 0,10,11
 151 1403 151 1403 211 1367 c 256,12,13
 271 1331 271 1331 331 1333 c 0,0,1
0 1449 m 0,14,15
 0 1594 0 1594 103 1678 c 0,16,17
 202 1758 202 1758 363 1758 c 0,18,19
 488 1758 488 1758 577 1688 c 0,20,21
 674 1611 674 1611 674 1489 c 0,22,23
 674 1341 674 1341 584.5 1265 c 128,-1,24
 495 1189 495 1189 316 1186 c 0,25,26
 180 1184 180 1184 90 1262 c 0,27,28
 0 1339 0 1339 0 1449 c 0,14,15
EndSplineSet
Validated: 33
EndChar
StartChar: ogonek
Encoding: 731 731 136
Width: 323
GlyphClass: 2
Flags: W
HStem: -344 149<174.894 427.702> -321 175<302.156 497.512>
VStem: 0 149<-175.331 -6.94562>
LayerCount: 2
Fore
SplineSet
149 -77 m 0,0,1
 149 -113 149 -113 175 -152 c 0,2,3
 202 -195 202 -195 237 -195 c 0,4,5
 338 -195 338 -195 410 -158 c 0,6,7
 432 -146 432 -146 449 -146 c 0,8,9
 480 -146 480 -146 501.5 -170 c 128,-1,10
 523 -194 523 -194 523 -225 c 0,11,12
 523 -288 523 -288 407 -321 c 0,13,14
 325 -344 325 -344 237 -344 c 0,15,16
 139 -344 139 -344 68 -258 c 0,17,18
 0 -177 0 -177 0 -77 c 0,19,20
 0 5 0 5 73 87.5 c 128,-1,21
 146 170 146 170 227 170 c 0,22,23
 258 170 258 170 278.5 147 c 128,-1,24
 299 124 299 124 299 93 c 0,25,26
 299 49 299 49 224 12 c 128,-1,27
 149 -25 149 -25 149 -77 c 0,0,1
EndSplineSet
Validated: 1
EndChar
StartChar: tilde
Encoding: 732 732 137
Width: 726
GlyphClass: 2
Flags: W
HStem: 1183 149<540.846 725.634> 1404 150<187.566 366.981>
LayerCount: 2
Fore
SplineSet
284 1554 m 0,0,1
 384 1554 384 1554 445 1496 c 1,2,-1
 528 1390 l 2,3,4
 575 1332 575 1332 640 1332 c 0,5,6
 697 1332 697 1332 725 1369 c 1,7,-1
 771 1457 l 1,8,-1
 791 1516 l 2,9,10
 805 1545 805 1545 851 1545 c 0,11,12
 926 1545 926 1545 926 1471 c 0,13,14
 926 1435 926 1435 883 1350 c 0,15,16
 843 1270 843 1270 814 1240 c 0,17,18
 758 1183 758 1183 671 1183 c 0,19,20
 540 1183 540 1183 466 1240 c 0,21,22
 439 1261 439 1261 378 1347 c 0,23,24
 336 1404 336 1404 284 1404 c 0,25,26
 253 1404 253 1404 228.5 1392.5 c 128,-1,27
 204 1381 204 1381 186 1358 c 1,28,-1
 142 1273 l 2,29,30
 117 1228 117 1228 77 1228 c 0,31,32
 46 1228 46 1228 23 1248.5 c 128,-1,33
 0 1269 0 1269 0 1300 c 0,34,35
 0 1311 0 1311 3 1323 c 0,36,37
 31 1425 31 1425 104 1488 c 0,38,39
 182 1554 182 1554 284 1554 c 0,0,1
EndSplineSet
Validated: 1
EndChar
StartChar: hungarumlaut
Encoding: 733 733 138
Width: 539
GlyphClass: 2
Flags: W
HStem: 1183 412
LayerCount: 2
Fore
SplineSet
329 1595 m 256,0,1
 359 1595 359 1595 382.5 1572 c 128,-1,2
 406 1549 406 1549 406 1519 c 0,3,4
 406 1494 406 1494 386 1470 c 0,5,6
 347 1423 347 1423 261 1341 c 0,7,8
 172 1257 172 1257 135 1213 c 0,9,10
 109 1183 109 1183 77 1183 c 0,11,12
 47 1183 47 1183 23.5 1205.5 c 128,-1,13
 0 1228 0 1228 0 1259 c 0,14,15
 0 1296 0 1296 117 1415 c 2,16,-1
 273 1568 l 2,17,18
 299 1595 299 1595 329 1595 c 256,0,1
665 1564 m 0,19,20
 695 1564 695 1564 717 1540.5 c 128,-1,21
 739 1517 739 1517 739 1486 c 256,22,23
 739 1455 739 1455 702 1424 c 2,24,-1
 553 1282 l 2,25,26
 448 1183 448 1183 411 1183 c 0,27,28
 381 1183 381 1183 358.5 1207 c 128,-1,29
 336 1231 336 1231 336 1261 c 0,30,31
 336 1294 336 1294 367 1319 c 2,32,-1
 514 1461 l 2,33,34
 622 1564 622 1564 665 1564 c 0,19,20
EndSplineSet
Validated: 1
EndChar
StartChar: tonos
Encoding: 900 900 139
Width: 71
GlyphClass: 2
Flags: W
HStem: 1149 356<103.708 140.219>
VStem: 0 271<1229 1417> 44 227<1318.11 1433.71>
LayerCount: 2
Fore
SplineSet
271 1417 m 0,0,1
 271 1386 271 1386 217 1303 c 0,2,3
 178 1247 178 1247 139 1191 c 0,4,5
 111 1149 111 1149 73 1149 c 0,6,7
 42 1149 42 1149 21 1173.5 c 128,-1,8
 0 1198 0 1198 0 1229 c 0,9,10
 0 1245 0 1245 44 1340 c 0,11,12
 83 1425 83 1425 102 1458 c 0,13,14
 129 1505 129 1505 177 1505 c 0,15,16
 214 1505 214 1505 242.5 1479.5 c 128,-1,17
 271 1454 271 1454 271 1417 c 0,0,1
EndSplineSet
Validated: 1
EndChar
StartChar: endash
Encoding: 8211 8211 144
Width: 584
GlyphClass: 2
Flags: W
HStem: 544 198<28.8787 347.12 354.763 755.121> 560 199<99.2502 683.268>
LayerCount: 2
Fore
SplineSet
414.177734375 759 m 0,0,1
 470.177734375 759 470.177734375 759 576.374023438 750.5 c 128,-1,2
 682.5703125 742 682.5703125 742 737.5703125 742 c 0,3,4
 780.5703125 742 780.5703125 742 794.392578125 714 c 128,-1,5
 808.215820312 686 808.215820312 686 786.442382812 643 c 256,6,7
 764.669921875 600 764.669921875 600 722.4921875 572 c 128,-1,8
 680.314453125 544 680.314453125 544 637.314453125 544 c 0,9,10
 582.314453125 544 582.314453125 544 475.865234375 552 c 128,-1,11
 369.415039062 560 369.415039062 560 313.415039062 560 c 0,12,13
 181.415039062 560 181.415039062 560 68.8212890625 545 c 0,14,15
 59.314453125 544 59.314453125 544 51.314453125 544 c 0,16,17
 8.314453125 544 8.314453125 544 -5.5078125 572 c 128,-1,18
 -19.330078125 600 -19.330078125 600 3.455078125 645 c 0,19,20
 42.9501953125 723 42.9501953125 723 134.063476562 741 c 128,-1,21
 225.177734375 759 225.177734375 759 414.177734375 759 c 0,0,1
EndSplineSet
Validated: 524321
EndChar
StartChar: emdash
Encoding: 8212 8212 145
Width: 1441
GlyphClass: 2
Flags: W
HStem: 546 201<13.5 1617.6>
LayerCount: 2
Fore
SplineSet
382.154296875 747 m 0,0,1
 504.154296875 747 504.154296875 747 742.654296875 740.5 c 128,-1,2
 981.154296875 734 981.154296875 734 1103.15429688 734 c 2,3,-1
 1342.69238281 740 l 1,4,-1
 1555.07714844 748 l 1,5,-1
 1611.15429688 747 l 2,6,7
 1699.15429688 747 1699.15429688 747 1615.15429688 656 c 0,8,9
 1512.69238281 545 1512.69238281 545 1338.69238281 545 c 0,10,11
 1311.69238281 545 1311.69238281 545 1252.96191406 548 c 128,-1,12
 1194.23046875 551 1194.23046875 551 1167.23046875 551 c 0,13,14
 969.23046875 551 969.23046875 551 570.922851562 548.5 c 128,-1,15
 172.615234375 546 172.615234375 546 -25.384765625 546 c 0,16,17
 -127.384765625 546 -127.384765625 546 -36 645 c 0,18,19
 49.845703125 738 49.845703125 738 151.384765625 744 c 0,20,21
 195.154296875 747 195.154296875 747 382.154296875 747 c 0,0,1
EndSplineSet
EndChar
StartChar: quoteleft
Encoding: 8216 8216 147
Width: 6
GlyphClass: 2
Flags: W
HStem: 1094 493<50.833 155.341>
VStem: 0 206<1151.94 1531.31>
LayerCount: 2
Fore
SplineSet
123 1094 m 0,0,1
 48 1094 48 1094 34 1195 c 0,2,3
 0 1443 0 1443 0 1484 c 0,4,5
 0 1587 0 1587 82 1587 c 0,6,7
 158 1587 158 1587 171 1492 c 0,8,9
 206 1247 206 1247 206 1197 c 0,10,11
 206 1094 206 1094 123 1094 c 0,0,1
EndSplineSet
Validated: 1
EndChar
StartChar: quoteright
Encoding: 8217 8217 148
AltUni2: 00201b.ffffffff.0 00201b.ffffffff.0
Width: 18
GlyphClass: 2
Flags: W
HStem: 1094 490<72.9835 145.829>
VStem: 0.0396484 218<1222.54 1431.17>
LayerCount: 2
Fore
SplineSet
80.0400390625 1094 m 0,0,1
 3.0400390625 1094 3.0400390625 1094 0.0400390625 1186 c 0,2,3
 -0.9599609375 1222 -0.9599609375 1222 23.0400390625 1330 c 2,4,-1
 61.0400390625 1505 l 2,5,6
 75.0400390625 1584 75.0400390625 1584 137.040039062 1584 c 0,7,8
 173.040039062 1584 173.040039062 1584 195.540039062 1557 c 128,-1,9
 218.040039062 1530 218.040039062 1530 218.040039062 1493 c 0,10,11
 220.040039062 1409 220.040039062 1409 165.040039062 1189 c 0,12,13
 141.040039062 1094 141.040039062 1094 80.0400390625 1094 c 0,0,1
EndSplineSet
Validated: 524321
EndChar
StartChar: quotesinglbase
Encoding: 8218 8218 149
Width: 125
GlyphClass: 2
Flags: W
HStem: -194 418<155.576 168>
VStem: 0 178<-184.82 -26.3713>
LayerCount: 2
Fore
SplineSet
90 -194 m 0,0,1
 0 -194 0 -194 0 -100 c 0,2,3
 0 -35 0 -35 86 92 c 0,4,5
 175 224 175 224 233 224 c 0,6,7
 269 224 269 224 297 197 c 128,-1,8
 325 170 325 170 325 134 c 256,9,10
 325 98 325 98 255 16 c 0,11,12
 183 -70 183 -70 178 -109 c 0,13,14
 168 -194 168 -194 90 -194 c 0,0,1
EndSplineSet
Validated: 1
EndChar
StartChar: quotedblleft
Encoding: 8220 8220 150
Width: 397
GlyphClass: 2
Flags: W
HStem: 1089 526<425.492 482.065>
VStem: 0 181<1471.96 1561.7> 310 183<1494.59 1589.22>
LayerCount: 2
Fore
SplineSet
504 1089 m 0,0,1
 437 1089 437 1089 416 1156 c 0,2,3
 310 1498 310 1498 310 1526 c 0,4,5
 310 1565 310 1565 338 1590 c 128,-1,6
 366 1615 366 1615 405 1615 c 0,7,8
 476 1615 476 1615 493 1541 c 1,9,-1
 552 1350 l 2,10,11
 597 1209 597 1209 597 1179 c 0,12,13
 597 1141 597 1141 569.5 1115 c 128,-1,14
 542 1089 542 1089 504 1089 c 0,0,1
183 1092 m 0,15,16
 123 1092 123 1092 99 1150 c 0,17,18
 85 1182 85 1182 43 1328 c 0,19,20
 0 1478 0 1478 0 1499 c 0,21,22
 0 1537 0 1537 28.5 1562.5 c 128,-1,23
 57 1588 57 1588 96 1588 c 0,24,25
 160 1588 160 1588 181 1522 c 2,26,-1
 232 1344 l 1,27,-1
 277 1183 l 1,28,29
 277 1145 277 1145 248.5 1118.5 c 128,-1,30
 220 1092 220 1092 183 1092 c 0,15,16
EndSplineSet
Validated: 1
EndChar
StartChar: quotedblright
Encoding: 8221 8221 151
Width: 423
GlyphClass: 2
Flags: W
HStem: 998 582<106.727 172.838 450.727 516.838>
VStem: 0 184<1024.3 1299.4> 344 184<1024.3 1299.4>
LayerCount: 2
Fore
SplineSet
438 998 m 0,0,1
 398 998 398 998 371 1023.5 c 128,-1,2
 344 1049 344 1049 344 1089 c 0,3,4
 344 1201 344 1201 441 1512 c 0,5,6
 463 1580 463 1580 527 1580 c 0,7,8
 566 1580 566 1580 594.5 1554 c 128,-1,9
 623 1528 623 1528 623 1490 c 1,10,-1
 564 1270 l 2,11,12
 541 1183 541 1183 528 1083 c 0,13,14
 518 998 518 998 438 998 c 0,0,1
94 998 m 0,15,16
 54 998 54 998 27 1023.5 c 128,-1,17
 0 1049 0 1049 0 1089 c 0,18,19
 0 1201 0 1201 97 1512 c 0,20,21
 119 1580 119 1580 183 1580 c 0,22,23
 222 1580 222 1580 250.5 1554 c 128,-1,24
 279 1528 279 1528 279 1490 c 1,25,-1
 220 1270 l 2,26,27
 197 1183 197 1183 184 1083 c 0,28,29
 174 998 174 998 94 998 c 0,15,16
EndSplineSet
Validated: 1
EndChar
StartChar: quotedblbase
Encoding: 8222 8222 152
Width: 480
GlyphClass: 2
Flags: W
HStem: -194 418<155.576 168 510.576 523>
VStem: 0 178<-184.82 -26.3713> 355 178<-184.82 -26.3713>
LayerCount: 2
Fore
SplineSet
90 -194 m 0,0,1
 0 -194 0 -194 0 -100 c 0,2,3
 0 -35 0 -35 86 92 c 0,4,5
 175 224 175 224 233 224 c 0,6,7
 269 224 269 224 297 197 c 128,-1,8
 325 170 325 170 325 134 c 256,9,10
 325 98 325 98 255 16 c 0,11,12
 183 -70 183 -70 178 -109 c 0,13,14
 168 -194 168 -194 90 -194 c 0,0,1
445 -194 m 0,15,16
 355 -194 355 -194 355 -100 c 0,17,18
 355 -35 355 -35 441 92 c 0,19,20
 530 224 530 224 588 224 c 0,21,22
 624 224 624 224 652 197 c 128,-1,23
 680 170 680 170 680 134 c 256,24,25
 680 98 680 98 610 16 c 0,26,27
 538 -70 538 -70 533 -109 c 0,28,29
 523 -194 523 -194 445 -194 c 0,15,16
EndSplineSet
Validated: 1
EndChar
StartChar: bullet
Encoding: 8226 8226 153
Width: 200
GlyphClass: 2
Flags: W
HStem: 558 401<75.4376 324.562>
VStem: 0 400<631.508 884.875>
LayerCount: 2
Fore
SplineSet
0 758 m 256,0,1
 0 841 0 841 58.5 900 c 128,-1,2
 117 959 117 959 200 959 c 256,3,4
 283 959 283 959 341.5 900 c 128,-1,5
 400 841 400 841 400 758 c 256,6,7
 400 675 400 675 341.5 616.5 c 128,-1,8
 283 558 283 558 200 558 c 256,9,10
 117 558 117 558 58.5 616.5 c 128,-1,11
 0 675 0 675 0 758 c 256,0,1
EndSplineSet
Validated: 1
EndChar
StartChar: ellipsis
Encoding: 8230 8230 154
Width: 864
GlyphClass: 2
Flags: W
HStem: -67 205<5.32837 188.672> -56 213<426.328 608.727 875.445 1042.75>
VStem: 0 194<-59.0327 129.925> 421 193<-48.0327 149.033> 853 211<-38.75 142>
LayerCount: 2
Fore
SplineSet
885.010742188 -59 m 0,0,1
 848.010742188 -59 848.010742188 -59 824.703125 -41 c 0,2,3
 797.34375 -20 797.34375 -20 808.412109375 15 c 0,4,5
 813.155273438 30 813.155273438 30 828.903320312 54.5 c 128,-1,6
 844.650390625 79 844.650390625 79 849.12890625 90 c 0,7,8
 880.581054688 161 880.581054688 161 967.581054688 161 c 0,9,10
 1065.58105469 161 1065.58105469 161 1041.54785156 85 c 0,11,12
 996.010742188 -59 996.010742188 -59 885.010742188 -59 c 0,0,1
450.959960938 -56 m 0,13,14
 353.959960938 -56 353.959960938 -56 377.360351562 18 c 2,15,-1
 397.915039062 83 l 2,16,17
 421.31640625 157 421.31640625 157 518.31640625 157 c 0,18,19
 614.31640625 157 614.31640625 157 590.915039062 83 c 2,20,-1
 570.360351562 18 l 2,21,22
 546.959960938 -56 546.959960938 -56 450.959960938 -56 c 0,13,14
26.4814453125 -67 m 256,23,24
 -70.5185546875 -67 -70.5185546875 -67 -47.1181640625 7 c 2,25,-1
 -29.4091796875 63 l 2,26,27
 -5.6923828125 138 -5.6923828125 138 91.3076171875 138 c 256,28,29
 188.307617188 138 188.307617188 138 164.590820312 63 c 2,30,-1
 146.881835938 7 l 2,31,32
 123.481445312 -67 123.481445312 -67 26.4814453125 -67 c 256,23,24
EndSplineSet
EndChar
StartChar: radicalex
Encoding: 8254 8254 158
Width: 1271
GlyphClass: 2
Flags: W
HStem: 1426 199<24.6387 1447.8>
LayerCount: 2
Fore
SplineSet
1478.88183594 1537 m 0,0,1
 1369.5234375 1426 1369.5234375 1426 1204.5234375 1426 c 2,2,-1
 260.5234375 1426 l 2,3,4
 212.5234375 1426 212.5234375 1426 127.486328125 1428.5 c 128,-1,5
 42.44921875 1431 42.44921875 1431 -5.55078125 1431 c 0,6,7
 -36.55078125 1431 -36.55078125 1431 -34.0390625 1464 c 128,-1,8
 -31.5263671875 1497 -31.5263671875 1497 -0.9853515625 1528 c 0,9,10
 95.5654296875 1626 95.5654296875 1626 207.565429688 1626 c 2,11,-1
 467.580078125 1625 l 2,12,13
 508.580078125 1625 508.580078125 1625 966.102539062 1623.5 c 128,-1,14
 1423.625 1622 1423.625 1622 1463.625 1622 c 0,15,16
 1499.625 1622 1499.625 1622 1506.00195312 1596.5 c 128,-1,17
 1512.37890625 1571 1512.37890625 1571 1478.88183594 1537 c 0,0,1
EndSplineSet
EndChar
StartChar: uF003
Encoding: 61443 61443 160
Width: 86
GlyphClass: 2
Flags: W
HStem: 1193 504<59.311 156.709>
VStem: 0 158<1272.66 1449.84>
LayerCount: 2
Fore
SplineSet
286 1576 m 0,0,1
 286 1466 286 1466 158 1436 c 1,2,3
 158 1392 158 1392 176.5 1342.5 c 128,-1,4
 195 1293 195 1293 195 1272 c 0,5,6
 195 1193 195 1193 124 1193 c 0,7,8
 63 1193 63 1193 28 1282 c 0,9,10
 0 1352 0 1352 0 1431 c 0,11,12
 0 1533 0 1533 30 1603 c 0,13,14
 69 1697 69 1697 154 1697 c 0,15,16
 206 1697 206 1697 246 1661.5 c 128,-1,17
 286 1626 286 1626 286 1576 c 0,0,1
EndSplineSet
Validated: 1
EndChar
StartChar: uF004
Encoding: 61444 61444 161
Width: 60
GlyphClass: 2
Flags: W
HStem: 1193 500<87.8541 155.296>
VStem: 0 260<1471.17 1656.9> 0 209<1246.91 1359.74>
LayerCount: 2
Fore
SplineSet
260 1530 m 0,0,1
 260 1433 260 1433 209 1322 c 0,2,3
 150 1193 150 1193 71 1193 c 0,4,5
 0 1193 0 1193 0 1266 c 0,6,7
 0 1294 0 1294 23 1329 c 0,8,9
 43 1358 43 1358 63 1386 c 0,10,11
 78 1410 78 1410 87 1439 c 1,12,13
 0 1490 0 1490 0 1569 c 0,14,15
 0 1623 0 1623 36.5 1658 c 128,-1,16
 73 1693 73 1693 128 1693 c 0,17,18
 260 1693 260 1693 260 1530 c 0,0,1
EndSplineSet
Validated: 1
EndChar
StartChar: uF005
Encoding: 61445 61445 162
Width: 60
GlyphClass: 2
Flags: W
HStem: 1193 500<104.704 172.146>
VStem: 0 260<1228.58 1414.33> 50 210<1526.23 1637.44>
LayerCount: 2
Fore
SplineSet
260 1316 m 0,0,1
 260 1262 260 1262 223.5 1227.5 c 128,-1,2
 187 1193 187 1193 132 1193 c 0,3,4
 0 1193 0 1193 0 1355 c 0,5,6
 0 1453 0 1453 50 1564 c 0,7,8
 110 1693 110 1693 189 1693 c 0,9,10
 260 1693 260 1693 260 1619 c 0,11,12
 260 1592 260 1592 237 1557 c 0,13,14
 217 1528 217 1528 197 1500 c 0,15,16
 181 1476 181 1476 173 1447 c 1,17,18
 260 1396 260 1396 260 1316 c 0,0,1
EndSplineSet
Validated: 1
EndChar
StartChar: middot
Encoding: 65540 -1 163
Width: 48
GlyphClass: 2
Flags: W
HStem: 592 248<37.1289 210.356>
VStem: 0 248<629.644 802.356>
LayerCount: 2
Fore
SplineSet
248 716 m 256,0,1
 248 665 248 665 211.5 628.5 c 128,-1,2
 175 592 175 592 124 592 c 0,3,4
 72 592 72 592 36 628.5 c 128,-1,5
 0 665 0 665 0 716 c 256,6,7
 0 767 0 767 36 803.5 c 128,-1,8
 72 840 72 840 124 840 c 0,9,10
 175 840 175 840 211.5 803.5 c 128,-1,11
 248 767 248 767 248 716 c 256,0,1
EndSplineSet
Validated: 1
EndChar
